M48
;DRILL file {Pcbnew (2013-mar-13)-testing} date vie 02 ago 2013 12:29:27 CEST
;FORMAT={-:-/ absolute / metric / decimal}
FMAT,2
METRIC,TZ
T1C0.813
T2C3.048
T3C6.096
%
G90
G05
M71
T1
X78.74Y-72.39
X78.74Y-79.375
X78.74Y-86.36
X78.74Y-93.345
X78.74Y-100.33
X78.74Y-107.315
X78.74Y-114.3
X78.74Y-121.285
X78.74Y-133.667
X81.28Y-72.39
X81.28Y-79.375
X81.28Y-86.36
X81.28Y-93.345
X81.28Y-100.33
X81.28Y-107.315
X81.28Y-114.3
X81.28Y-121.285
X81.28Y-131.127
X81.28Y-133.667
X83.502Y-136.207
X86.042Y-133.667
X86.042Y-136.207
X87.25Y-71.12
X87.25Y-73.62
X87.25Y-78.105
X87.25Y-80.605
X87.25Y-85.09
X87.25Y-87.59
X87.25Y-92.075
X87.25Y-94.575
X87.25Y-99.06
X87.25Y-101.56
X87.25Y-106.045
X87.25Y-108.545
X87.25Y-113.03
X87.25Y-115.53
X87.25Y-120.015
X87.25Y-122.515
X89.25Y-71.12
X89.25Y-73.62
X89.25Y-78.105
X89.25Y-80.605
X89.25Y-85.09
X89.25Y-87.59
X89.25Y-92.075
X89.25Y-94.575
X89.25Y-99.06
X89.25Y-101.56
X89.25Y-106.045
X89.25Y-108.545
X89.25Y-113.03
X89.25Y-115.53
X89.25Y-120.015
X89.25Y-122.515
X90.487Y-133.667
X91.25Y-71.12
X91.25Y-73.62
X91.25Y-78.105
X91.25Y-80.605
X91.25Y-85.09
X91.25Y-87.59
X91.25Y-92.075
X91.25Y-94.575
X91.25Y-99.06
X91.25Y-101.56
X91.25Y-106.045
X91.25Y-108.545
X91.25Y-113.03
X91.25Y-115.53
X91.25Y-120.015
X91.25Y-122.515
X93.027Y-131.127
X93.027Y-133.667
X95.25Y-71.12
X95.25Y-73.62
X95.25Y-78.105
X95.25Y-80.605
X95.25Y-85.09
X95.25Y-87.59
X95.25Y-92.075
X95.25Y-94.575
X95.25Y-99.06
X95.25Y-101.56
X95.25Y-106.045
X95.25Y-108.545
X95.25Y-113.03
X95.25Y-115.53
X95.25Y-120.015
X95.25Y-122.515
X95.25Y-136.207
X97.79Y-133.667
X97.79Y-136.207
X102.235Y-133.667
X104.775Y-131.127
X104.775Y-133.667
X106.997Y-136.207
X109.537Y-133.667
X109.537Y-136.207
X113.983Y-133.667
X116.522Y-131.127
X116.522Y-133.667
X118.11Y-72.39
X118.11Y-79.375
X118.11Y-86.36
X118.11Y-93.345
X118.11Y-100.33
X118.11Y-107.315
X118.11Y-114.3
X118.11Y-121.285
X118.745Y-136.207
X120.65Y-72.39
X120.65Y-79.375
X120.65Y-86.36
X120.65Y-93.345
X120.65Y-100.33
X120.65Y-107.315
X120.65Y-114.3
X120.65Y-121.285
X121.285Y-133.667
X121.285Y-136.207
T2
X79.057Y-64.453
X79.057Y-155.892
X120.332Y-64.453
X120.332Y-155.892
T3
X84.709Y-146.368
X114.681Y-146.368
T0
M30
