G04 (created by PCBNEW (2013-mar-13)-testing) date vie 02 ago 2013 12:29:19 CEST*
%MOIN*%
G04 Gerber Fmt 3.4, Leading zero omitted, Abs format*
%FSLAX34Y34*%
G01*
G70*
G90*
G04 APERTURE LIST*
%ADD10C,0.005906*%
%ADD11R,0.055000X0.055000*%
%ADD12C,0.055000*%
%ADD13R,0.047200X0.047200*%
%ADD14C,0.400000*%
%ADD15R,0.035000X0.055000*%
%ADD16R,0.055000X0.035000*%
%ADD17C,0.160000*%
%ADD18R,0.019700X0.090600*%
%ADD19R,0.078700X0.098400*%
%ADD20C,0.020000*%
%ADD21C,0.025000*%
%ADD22C,0.010000*%
G04 APERTURE END LIST*
G54D10*
G54D11*
X37500Y-28000D03*
G54D12*
X35925Y-28000D03*
X35137Y-28000D03*
X34350Y-28000D03*
G54D11*
X37500Y-28984D03*
G54D12*
X35925Y-28984D03*
X35137Y-28984D03*
X34350Y-28984D03*
G54D13*
X45163Y-28500D03*
X44337Y-28500D03*
X45163Y-31250D03*
X44337Y-31250D03*
X45163Y-34000D03*
X44337Y-34000D03*
X45163Y-36750D03*
X44337Y-36750D03*
X45163Y-39500D03*
X44337Y-39500D03*
X45163Y-42250D03*
X44337Y-42250D03*
X45163Y-45000D03*
X44337Y-45000D03*
X45163Y-47750D03*
X44337Y-47750D03*
G54D14*
X45150Y-57625D03*
X33350Y-57625D03*
G54D11*
X46500Y-28500D03*
G54D12*
X47500Y-28500D03*
G54D11*
X46500Y-31250D03*
G54D12*
X47500Y-31250D03*
G54D11*
X46500Y-34000D03*
G54D12*
X47500Y-34000D03*
G54D11*
X46500Y-36750D03*
G54D12*
X47500Y-36750D03*
G54D11*
X46500Y-39500D03*
G54D12*
X47500Y-39500D03*
G54D11*
X46500Y-42250D03*
G54D12*
X47500Y-42250D03*
G54D11*
X46500Y-45000D03*
G54D12*
X47500Y-45000D03*
G54D11*
X46500Y-47750D03*
G54D12*
X47500Y-47750D03*
G54D11*
X32000Y-28500D03*
G54D12*
X31000Y-28500D03*
G54D11*
X32000Y-31250D03*
G54D12*
X31000Y-31250D03*
G54D11*
X32000Y-34000D03*
G54D12*
X31000Y-34000D03*
G54D11*
X32000Y-36750D03*
G54D12*
X31000Y-36750D03*
G54D11*
X32000Y-39500D03*
G54D12*
X31000Y-39500D03*
G54D11*
X32000Y-42250D03*
G54D12*
X31000Y-42250D03*
G54D11*
X32000Y-45000D03*
G54D12*
X31000Y-45000D03*
G54D11*
X32000Y-47750D03*
G54D12*
X31000Y-47750D03*
G54D15*
X44375Y-29250D03*
X45125Y-29250D03*
X44375Y-32000D03*
X45125Y-32000D03*
X44375Y-34750D03*
X45125Y-34750D03*
X44375Y-37500D03*
X45125Y-37500D03*
X44375Y-40250D03*
X45125Y-40250D03*
X44375Y-43000D03*
X45125Y-43000D03*
X44375Y-45750D03*
X45125Y-45750D03*
X44375Y-48500D03*
X45125Y-48500D03*
G54D16*
X39125Y-28875D03*
X39125Y-28125D03*
X39125Y-31625D03*
X39125Y-30875D03*
X39125Y-34375D03*
X39125Y-33625D03*
X39125Y-37125D03*
X39125Y-36375D03*
X39125Y-39875D03*
X39125Y-39125D03*
X39125Y-42625D03*
X39125Y-41875D03*
X39125Y-45500D03*
X39125Y-44750D03*
X39125Y-48125D03*
X39125Y-47375D03*
G54D11*
X37500Y-30750D03*
G54D12*
X35925Y-30750D03*
X35137Y-30750D03*
X34350Y-30750D03*
G54D11*
X37500Y-31734D03*
G54D12*
X35925Y-31734D03*
X35137Y-31734D03*
X34350Y-31734D03*
G54D11*
X37500Y-33500D03*
G54D12*
X35925Y-33500D03*
X35137Y-33500D03*
X34350Y-33500D03*
G54D11*
X37500Y-34484D03*
G54D12*
X35925Y-34484D03*
X35137Y-34484D03*
X34350Y-34484D03*
G54D11*
X37500Y-36250D03*
G54D12*
X35925Y-36250D03*
X35137Y-36250D03*
X34350Y-36250D03*
G54D11*
X37500Y-37234D03*
G54D12*
X35925Y-37234D03*
X35137Y-37234D03*
X34350Y-37234D03*
G54D11*
X37500Y-39000D03*
G54D12*
X35925Y-39000D03*
X35137Y-39000D03*
X34350Y-39000D03*
G54D11*
X37500Y-39984D03*
G54D12*
X35925Y-39984D03*
X35137Y-39984D03*
X34350Y-39984D03*
G54D11*
X37500Y-41750D03*
G54D12*
X35925Y-41750D03*
X35137Y-41750D03*
X34350Y-41750D03*
G54D11*
X37500Y-42734D03*
G54D12*
X35925Y-42734D03*
X35137Y-42734D03*
X34350Y-42734D03*
G54D11*
X37500Y-44500D03*
G54D12*
X35925Y-44500D03*
X35137Y-44500D03*
X34350Y-44500D03*
G54D11*
X37500Y-45484D03*
G54D12*
X35925Y-45484D03*
X35137Y-45484D03*
X34350Y-45484D03*
G54D11*
X37500Y-47250D03*
G54D12*
X35925Y-47250D03*
X35137Y-47250D03*
X34350Y-47250D03*
G54D11*
X37500Y-48234D03*
G54D12*
X35925Y-48234D03*
X35137Y-48234D03*
X34350Y-48234D03*
G54D17*
X31125Y-61375D03*
X47375Y-25375D03*
X31125Y-25375D03*
X47375Y-61375D03*
G54D18*
X38745Y-60142D03*
X39060Y-60142D03*
X39375Y-60142D03*
X39690Y-60142D03*
X40005Y-60142D03*
G54D19*
X37623Y-60181D03*
X37623Y-62346D03*
X41127Y-60181D03*
X41127Y-62346D03*
G54D11*
X31000Y-52625D03*
G54D12*
X32000Y-52625D03*
X32000Y-51625D03*
G54D11*
X32875Y-53625D03*
G54D12*
X33875Y-53625D03*
X33875Y-52625D03*
G54D11*
X35625Y-52625D03*
G54D12*
X36625Y-52625D03*
X36625Y-51625D03*
G54D11*
X37500Y-53625D03*
G54D12*
X38500Y-53625D03*
X38500Y-52625D03*
G54D11*
X40250Y-52625D03*
G54D12*
X41250Y-52625D03*
X41250Y-51625D03*
G54D11*
X42125Y-53625D03*
G54D12*
X43125Y-53625D03*
X43125Y-52625D03*
G54D11*
X44875Y-52625D03*
G54D12*
X45875Y-52625D03*
X45875Y-51625D03*
G54D11*
X46750Y-53625D03*
G54D12*
X47750Y-53625D03*
X47750Y-52625D03*
G54D20*
X38745Y-60142D02*
X38745Y-58620D01*
X37750Y-57625D02*
X33350Y-57625D01*
X38745Y-58620D02*
X37750Y-57625D01*
G54D21*
X44375Y-29250D02*
X44375Y-29875D01*
X44750Y-30250D02*
X45750Y-30250D01*
X44375Y-29875D02*
X44750Y-30250D01*
X44375Y-32000D02*
X44375Y-32500D01*
X44750Y-32875D02*
X45750Y-32875D01*
X44375Y-32500D02*
X44750Y-32875D01*
X44375Y-34750D02*
X44375Y-35250D01*
X44750Y-35625D02*
X45750Y-35625D01*
X44375Y-35250D02*
X44750Y-35625D01*
X44375Y-37500D02*
X44375Y-38250D01*
X44625Y-38500D02*
X45750Y-38500D01*
X44375Y-38250D02*
X44625Y-38500D01*
X45750Y-38500D02*
X45625Y-38500D01*
X45625Y-38500D02*
X45750Y-38500D01*
X44375Y-40250D02*
X44375Y-40750D01*
X44625Y-41000D02*
X45750Y-41000D01*
X44375Y-40750D02*
X44625Y-41000D01*
X44375Y-43000D02*
X44375Y-43625D01*
X44625Y-43875D02*
X45750Y-43875D01*
X44375Y-43625D02*
X44625Y-43875D01*
X44375Y-45750D02*
X44375Y-46375D01*
X44625Y-46625D02*
X45750Y-46625D01*
X44375Y-46375D02*
X44625Y-46625D01*
X45625Y-27750D02*
X45750Y-27875D01*
X44375Y-49000D02*
X44750Y-49375D01*
X44750Y-49375D02*
X45375Y-49375D01*
X45375Y-49375D02*
X45750Y-49000D01*
X45625Y-27750D02*
X45250Y-27375D01*
X45250Y-27375D02*
X41000Y-27375D01*
X41000Y-27375D02*
X39500Y-28875D01*
X39125Y-28875D02*
X39500Y-28875D01*
X44375Y-49000D02*
X44375Y-48500D01*
X45750Y-27875D02*
X45750Y-30250D01*
X45750Y-30250D02*
X45750Y-32875D01*
X45750Y-32875D02*
X45750Y-35625D01*
X45750Y-35625D02*
X45750Y-38500D01*
X45750Y-38500D02*
X45750Y-41000D01*
X45750Y-41000D02*
X45750Y-43875D01*
X45750Y-43875D02*
X45750Y-46625D01*
X45750Y-46625D02*
X45750Y-49000D01*
X36750Y-46375D02*
X38250Y-46375D01*
X38250Y-46375D02*
X39125Y-45500D01*
X36750Y-43625D02*
X38125Y-43625D01*
X38125Y-43625D02*
X39125Y-42625D01*
X36750Y-40875D02*
X38125Y-40875D01*
X38125Y-40875D02*
X39125Y-39875D01*
X36750Y-38125D02*
X38125Y-38125D01*
X38125Y-38125D02*
X39125Y-37125D01*
X36750Y-35375D02*
X38125Y-35375D01*
X38125Y-35375D02*
X39125Y-34375D01*
X36750Y-32625D02*
X38125Y-32625D01*
X38125Y-32625D02*
X39125Y-31625D01*
X36750Y-49250D02*
X36750Y-46375D01*
X36750Y-46375D02*
X36750Y-43625D01*
X36750Y-43625D02*
X36750Y-40875D01*
X36750Y-40875D02*
X36750Y-38125D01*
X36750Y-38125D02*
X36750Y-35375D01*
X36750Y-35375D02*
X36750Y-32625D01*
X36750Y-32625D02*
X36750Y-30125D01*
X38250Y-29750D02*
X39125Y-28875D01*
X37125Y-29750D02*
X38250Y-29750D01*
X36750Y-30125D02*
X37125Y-29750D01*
X33350Y-57625D02*
X33000Y-57625D01*
X38000Y-49250D02*
X39125Y-48125D01*
X31750Y-49250D02*
X36750Y-49250D01*
X36750Y-49250D02*
X38000Y-49250D01*
X30250Y-50750D02*
X31750Y-49250D01*
X30250Y-54875D02*
X30250Y-50750D01*
X33000Y-57625D02*
X30250Y-54875D01*
G54D20*
X39690Y-60142D02*
X40005Y-60142D01*
X40005Y-60142D02*
X40005Y-59130D01*
X40005Y-59130D02*
X40000Y-59125D01*
G54D21*
X37500Y-39000D02*
X39000Y-39000D01*
X39000Y-39000D02*
X39125Y-39125D01*
X37500Y-39000D02*
X37500Y-39984D01*
X37500Y-30750D02*
X39000Y-30750D01*
X39000Y-30750D02*
X39125Y-30875D01*
X37500Y-30750D02*
X37500Y-31734D01*
X32000Y-28500D02*
X32125Y-28500D01*
X35925Y-27550D02*
X35925Y-28000D01*
X35500Y-27125D02*
X35925Y-27550D01*
X33500Y-27125D02*
X35500Y-27125D01*
X32125Y-28500D02*
X33500Y-27125D01*
X35925Y-28984D02*
X35925Y-28000D01*
X31000Y-28500D02*
X32000Y-28500D01*
X37500Y-28000D02*
X39000Y-28000D01*
X39000Y-28000D02*
X39125Y-28125D01*
X37500Y-28000D02*
X37500Y-28984D01*
X47500Y-47750D02*
X46500Y-47750D01*
X46500Y-49875D02*
X46750Y-49875D01*
X46500Y-49875D02*
X44375Y-49875D01*
X44375Y-49875D02*
X43625Y-49125D01*
X43625Y-49125D02*
X43625Y-48125D01*
X43625Y-48125D02*
X44000Y-47750D01*
X44337Y-47750D02*
X44000Y-47750D01*
X47750Y-50875D02*
X47750Y-52625D01*
X46750Y-49875D02*
X47750Y-50875D01*
X45163Y-47750D02*
X45163Y-48462D01*
X45163Y-48462D02*
X45125Y-48500D01*
X32000Y-31250D02*
X32125Y-31250D01*
X35925Y-30300D02*
X35925Y-30750D01*
X35500Y-29875D02*
X35925Y-30300D01*
X33500Y-29875D02*
X35500Y-29875D01*
X32125Y-31250D02*
X33500Y-29875D01*
X35925Y-31734D02*
X35925Y-30750D01*
X31000Y-31250D02*
X32000Y-31250D01*
X37500Y-33500D02*
X39000Y-33500D01*
X39000Y-33500D02*
X39125Y-33625D01*
X37500Y-33500D02*
X37500Y-34484D01*
G54D22*
X35137Y-44500D02*
X35137Y-45484D01*
X35137Y-33500D02*
X35137Y-34484D01*
X35137Y-36250D02*
X35137Y-37234D01*
X35137Y-39000D02*
X35137Y-39984D01*
X35137Y-41750D02*
X35137Y-42734D01*
X35137Y-47250D02*
X35137Y-48234D01*
X35137Y-30750D02*
X35137Y-31734D01*
G54D21*
X37500Y-44500D02*
X38875Y-44500D01*
X38875Y-44500D02*
X39125Y-44750D01*
X37500Y-44500D02*
X37500Y-45484D01*
G54D20*
X39060Y-60142D02*
X39060Y-60810D01*
X39415Y-61165D02*
X40241Y-61165D01*
X39060Y-60810D02*
X39415Y-61165D01*
G54D21*
X37500Y-47250D02*
X39000Y-47250D01*
X39000Y-47250D02*
X39125Y-47375D01*
X37500Y-47250D02*
X37500Y-48234D01*
X32000Y-36750D02*
X32125Y-36750D01*
X35925Y-35675D02*
X35925Y-36250D01*
X35625Y-35375D02*
X35925Y-35675D01*
X33500Y-35375D02*
X35625Y-35375D01*
X32125Y-36750D02*
X33500Y-35375D01*
X35925Y-36250D02*
X35925Y-37234D01*
X31000Y-36750D02*
X32000Y-36750D01*
X32000Y-45000D02*
X32125Y-45000D01*
X35925Y-44175D02*
X35925Y-44500D01*
X35375Y-43625D02*
X35925Y-44175D01*
X33500Y-43625D02*
X35375Y-43625D01*
X32125Y-45000D02*
X33500Y-43625D01*
X35925Y-44500D02*
X35925Y-45484D01*
X31000Y-45000D02*
X32000Y-45000D01*
G54D22*
X35137Y-28984D02*
X35137Y-28000D01*
G54D21*
X32000Y-47750D02*
X32125Y-47750D01*
X35925Y-46675D02*
X35925Y-47250D01*
X35625Y-46375D02*
X35925Y-46675D01*
X33500Y-46375D02*
X35625Y-46375D01*
X32125Y-47750D02*
X33500Y-46375D01*
X35925Y-47250D02*
X35925Y-48234D01*
X31000Y-47750D02*
X32000Y-47750D01*
X47500Y-31250D02*
X46500Y-31250D01*
X36750Y-51625D02*
X36750Y-51500D01*
X42125Y-34000D02*
X44337Y-34000D01*
X41125Y-35000D02*
X42125Y-34000D01*
X41125Y-48750D02*
X41125Y-35000D01*
X39000Y-50875D02*
X41125Y-48750D01*
X37375Y-50875D02*
X39000Y-50875D01*
X36750Y-51500D02*
X37375Y-50875D01*
X45163Y-34000D02*
X45163Y-34712D01*
X45163Y-34712D02*
X45125Y-34750D01*
X46500Y-34000D02*
X47500Y-34000D01*
X33875Y-52625D02*
X33875Y-51625D01*
X41750Y-31250D02*
X44337Y-31250D01*
X40625Y-32375D02*
X41750Y-31250D01*
X40625Y-48500D02*
X40625Y-32375D01*
X38750Y-50375D02*
X40625Y-48500D01*
X35125Y-50375D02*
X38750Y-50375D01*
X33875Y-51625D02*
X35125Y-50375D01*
X45163Y-31250D02*
X45163Y-31962D01*
X45163Y-31962D02*
X45125Y-32000D01*
X38625Y-52125D02*
X38500Y-52250D01*
X38625Y-52125D02*
X41625Y-49125D01*
X41625Y-49125D02*
X41625Y-37750D01*
X41625Y-37750D02*
X42625Y-36750D01*
X44337Y-36750D02*
X42625Y-36750D01*
X38500Y-52250D02*
X38500Y-52625D01*
X45163Y-36750D02*
X45163Y-37462D01*
X45163Y-37462D02*
X45125Y-37500D01*
X47500Y-36750D02*
X46500Y-36750D01*
X44337Y-28500D02*
X40750Y-28500D01*
X32000Y-50875D02*
X33000Y-49875D01*
X33000Y-49875D02*
X38625Y-49875D01*
X38625Y-49875D02*
X40125Y-48375D01*
X40125Y-48375D02*
X40125Y-29125D01*
X40125Y-29125D02*
X40750Y-28500D01*
X32000Y-50875D02*
X32000Y-51625D01*
X45163Y-28500D02*
X45163Y-29212D01*
X45163Y-29212D02*
X45125Y-29250D01*
X46500Y-28500D02*
X47500Y-28500D01*
X37500Y-36250D02*
X39000Y-36250D01*
X39000Y-36250D02*
X39125Y-36375D01*
X37500Y-36250D02*
X37500Y-37234D01*
X44250Y-50625D02*
X45125Y-51500D01*
X44337Y-45000D02*
X43625Y-45000D01*
X43125Y-45500D02*
X43625Y-45000D01*
X43125Y-49500D02*
X43125Y-45500D01*
X44250Y-50625D02*
X43125Y-49500D01*
X45750Y-51500D02*
X45875Y-51625D01*
X45125Y-51500D02*
X45750Y-51500D01*
X45163Y-45000D02*
X45163Y-45712D01*
X45163Y-45712D02*
X45125Y-45750D01*
X46500Y-45000D02*
X47500Y-45000D01*
X46500Y-42250D02*
X47500Y-42250D01*
X42625Y-51125D02*
X42625Y-52125D01*
X42625Y-51125D02*
X42625Y-43375D01*
X42625Y-43375D02*
X43750Y-42250D01*
X44337Y-42250D02*
X43750Y-42250D01*
X42625Y-52125D02*
X43125Y-52625D01*
X45163Y-42250D02*
X45163Y-42962D01*
X45163Y-42962D02*
X45125Y-43000D01*
X46500Y-39500D02*
X47500Y-39500D01*
X41500Y-50250D02*
X41250Y-50500D01*
X41500Y-50250D02*
X42125Y-49625D01*
X42125Y-49625D02*
X42125Y-41250D01*
X42125Y-41250D02*
X42125Y-40375D01*
X42125Y-40375D02*
X43000Y-39500D01*
X44337Y-39500D02*
X43000Y-39500D01*
X41250Y-50500D02*
X41250Y-51625D01*
X45163Y-39500D02*
X45163Y-40212D01*
X45163Y-40212D02*
X45125Y-40250D01*
X32000Y-34000D02*
X32125Y-34000D01*
X35925Y-33050D02*
X35925Y-33500D01*
X35500Y-32625D02*
X35925Y-33050D01*
X33500Y-32625D02*
X35500Y-32625D01*
X32125Y-34000D02*
X33500Y-32625D01*
X35925Y-34484D02*
X35925Y-33500D01*
X31000Y-34000D02*
X32000Y-34000D01*
X37500Y-41750D02*
X39000Y-41750D01*
X39000Y-41750D02*
X39125Y-41875D01*
X37500Y-41750D02*
X37500Y-42734D01*
X32000Y-42250D02*
X32125Y-42250D01*
X35925Y-41300D02*
X35925Y-41750D01*
X35500Y-40875D02*
X35925Y-41300D01*
X33500Y-40875D02*
X35500Y-40875D01*
X32125Y-42250D02*
X33500Y-40875D01*
X35925Y-41750D02*
X35925Y-42734D01*
X31000Y-42250D02*
X32000Y-42250D01*
X35925Y-39000D02*
X35925Y-39984D01*
X32000Y-39500D02*
X32125Y-39500D01*
X35925Y-38675D02*
X35925Y-39000D01*
X35375Y-38125D02*
X35925Y-38675D01*
X33500Y-38125D02*
X35375Y-38125D01*
X32125Y-39500D02*
X33500Y-38125D01*
X31000Y-39500D02*
X32000Y-39500D01*
G54D10*
G36*
X40103Y-60304D02*
X40054Y-60304D01*
X39955Y-60304D01*
X39906Y-60304D01*
X39906Y-59979D01*
X39955Y-59979D01*
X40054Y-59979D01*
X40103Y-59979D01*
X40103Y-60304D01*
X40103Y-60304D01*
G37*
G54D22*
X40103Y-60304D02*
X40054Y-60304D01*
X39955Y-60304D01*
X39906Y-60304D01*
X39906Y-59979D01*
X39955Y-59979D01*
X40054Y-59979D01*
X40103Y-59979D01*
X40103Y-60304D01*
G54D10*
G36*
X48720Y-62720D02*
X48425Y-62720D01*
X48425Y-61167D01*
X48425Y-25167D01*
X48265Y-24780D01*
X47970Y-24485D01*
X47584Y-24325D01*
X47167Y-24324D01*
X46780Y-24484D01*
X46485Y-24779D01*
X46325Y-25165D01*
X46324Y-25582D01*
X46484Y-25969D01*
X46779Y-26264D01*
X47165Y-26424D01*
X47582Y-26425D01*
X47969Y-26265D01*
X48264Y-25970D01*
X48424Y-25584D01*
X48425Y-25167D01*
X48425Y-61167D01*
X48275Y-60803D01*
X48275Y-53521D01*
X48195Y-53328D01*
X48047Y-53180D01*
X47914Y-53124D01*
X48047Y-53070D01*
X48194Y-52922D01*
X48274Y-52729D01*
X48275Y-52521D01*
X48195Y-52328D01*
X48125Y-52257D01*
X48125Y-50875D01*
X48096Y-50731D01*
X48015Y-50609D01*
X48015Y-50609D01*
X47015Y-49609D01*
X46893Y-49528D01*
X46750Y-49500D01*
X46500Y-49500D01*
X45780Y-49500D01*
X46015Y-49265D01*
X46015Y-49265D01*
X46096Y-49143D01*
X46124Y-49000D01*
X46125Y-49000D01*
X46125Y-48254D01*
X46175Y-48275D01*
X46274Y-48275D01*
X46824Y-48275D01*
X46916Y-48236D01*
X46986Y-48166D01*
X47004Y-48125D01*
X47132Y-48125D01*
X47202Y-48194D01*
X47395Y-48274D01*
X47603Y-48275D01*
X47797Y-48195D01*
X47944Y-48047D01*
X48024Y-47854D01*
X48025Y-47646D01*
X47945Y-47453D01*
X47797Y-47305D01*
X47604Y-47225D01*
X47396Y-47224D01*
X47203Y-47304D01*
X47132Y-47375D01*
X47004Y-47375D01*
X46986Y-47333D01*
X46916Y-47263D01*
X46824Y-47225D01*
X46725Y-47225D01*
X46175Y-47225D01*
X46125Y-47245D01*
X46125Y-46625D01*
X46125Y-45504D01*
X46175Y-45525D01*
X46274Y-45525D01*
X46824Y-45525D01*
X46916Y-45486D01*
X46986Y-45416D01*
X47004Y-45375D01*
X47132Y-45375D01*
X47202Y-45444D01*
X47395Y-45524D01*
X47603Y-45525D01*
X47797Y-45445D01*
X47944Y-45297D01*
X48024Y-45104D01*
X48025Y-44896D01*
X47945Y-44703D01*
X47797Y-44555D01*
X47604Y-44475D01*
X47396Y-44474D01*
X47203Y-44554D01*
X47132Y-44625D01*
X47004Y-44625D01*
X46986Y-44583D01*
X46916Y-44513D01*
X46824Y-44475D01*
X46725Y-44475D01*
X46175Y-44475D01*
X46125Y-44495D01*
X46125Y-43875D01*
X46125Y-42754D01*
X46175Y-42775D01*
X46274Y-42775D01*
X46824Y-42775D01*
X46916Y-42736D01*
X46986Y-42666D01*
X47004Y-42625D01*
X47132Y-42625D01*
X47202Y-42694D01*
X47395Y-42774D01*
X47603Y-42775D01*
X47797Y-42695D01*
X47944Y-42547D01*
X48024Y-42354D01*
X48025Y-42146D01*
X47945Y-41953D01*
X47797Y-41805D01*
X47604Y-41725D01*
X47396Y-41724D01*
X47203Y-41804D01*
X47132Y-41875D01*
X47004Y-41875D01*
X46986Y-41833D01*
X46916Y-41763D01*
X46824Y-41725D01*
X46725Y-41725D01*
X46175Y-41725D01*
X46125Y-41745D01*
X46125Y-41000D01*
X46125Y-40004D01*
X46175Y-40025D01*
X46274Y-40025D01*
X46824Y-40025D01*
X46916Y-39986D01*
X46986Y-39916D01*
X47004Y-39875D01*
X47132Y-39875D01*
X47202Y-39944D01*
X47395Y-40024D01*
X47603Y-40025D01*
X47797Y-39945D01*
X47944Y-39797D01*
X48024Y-39604D01*
X48025Y-39396D01*
X47945Y-39203D01*
X47797Y-39055D01*
X47604Y-38975D01*
X47396Y-38974D01*
X47203Y-39054D01*
X47132Y-39125D01*
X47004Y-39125D01*
X46986Y-39083D01*
X46916Y-39013D01*
X46824Y-38975D01*
X46725Y-38975D01*
X46175Y-38975D01*
X46125Y-38995D01*
X46125Y-38500D01*
X46125Y-37254D01*
X46175Y-37275D01*
X46274Y-37275D01*
X46824Y-37275D01*
X46916Y-37236D01*
X46986Y-37166D01*
X47004Y-37125D01*
X47132Y-37125D01*
X47202Y-37194D01*
X47395Y-37274D01*
X47603Y-37275D01*
X47797Y-37195D01*
X47944Y-37047D01*
X48024Y-36854D01*
X48025Y-36646D01*
X47945Y-36453D01*
X47797Y-36305D01*
X47604Y-36225D01*
X47396Y-36224D01*
X47203Y-36304D01*
X47132Y-36375D01*
X47004Y-36375D01*
X46986Y-36333D01*
X46916Y-36263D01*
X46824Y-36225D01*
X46725Y-36225D01*
X46175Y-36225D01*
X46125Y-36245D01*
X46125Y-35625D01*
X46125Y-34504D01*
X46175Y-34525D01*
X46274Y-34525D01*
X46824Y-34525D01*
X46916Y-34486D01*
X46986Y-34416D01*
X47004Y-34375D01*
X47132Y-34375D01*
X47202Y-34444D01*
X47395Y-34524D01*
X47603Y-34525D01*
X47797Y-34445D01*
X47944Y-34297D01*
X48024Y-34104D01*
X48025Y-33896D01*
X47945Y-33703D01*
X47797Y-33555D01*
X47604Y-33475D01*
X47396Y-33474D01*
X47203Y-33554D01*
X47132Y-33625D01*
X47004Y-33625D01*
X46986Y-33583D01*
X46916Y-33513D01*
X46824Y-33475D01*
X46725Y-33475D01*
X46175Y-33475D01*
X46125Y-33495D01*
X46125Y-32875D01*
X46125Y-31754D01*
X46175Y-31775D01*
X46274Y-31775D01*
X46824Y-31775D01*
X46916Y-31736D01*
X46986Y-31666D01*
X47004Y-31625D01*
X47132Y-31625D01*
X47202Y-31694D01*
X47395Y-31774D01*
X47603Y-31775D01*
X47797Y-31695D01*
X47944Y-31547D01*
X48024Y-31354D01*
X48025Y-31146D01*
X47945Y-30953D01*
X47797Y-30805D01*
X47604Y-30725D01*
X47396Y-30724D01*
X47203Y-30804D01*
X47132Y-30875D01*
X47004Y-30875D01*
X46986Y-30833D01*
X46916Y-30763D01*
X46824Y-30725D01*
X46725Y-30725D01*
X46175Y-30725D01*
X46125Y-30745D01*
X46125Y-30250D01*
X46125Y-29004D01*
X46175Y-29025D01*
X46274Y-29025D01*
X46824Y-29025D01*
X46916Y-28986D01*
X46986Y-28916D01*
X47004Y-28875D01*
X47132Y-28875D01*
X47202Y-28944D01*
X47395Y-29024D01*
X47603Y-29025D01*
X47797Y-28945D01*
X47944Y-28797D01*
X48024Y-28604D01*
X48025Y-28396D01*
X47945Y-28203D01*
X47797Y-28055D01*
X47604Y-27975D01*
X47396Y-27974D01*
X47203Y-28054D01*
X47132Y-28125D01*
X47004Y-28125D01*
X46986Y-28083D01*
X46916Y-28013D01*
X46824Y-27975D01*
X46725Y-27975D01*
X46175Y-27975D01*
X46125Y-27995D01*
X46125Y-27875D01*
X46096Y-27731D01*
X46015Y-27609D01*
X45890Y-27484D01*
X45890Y-27484D01*
X45890Y-27484D01*
X45515Y-27109D01*
X45393Y-27028D01*
X45250Y-27000D01*
X41000Y-27000D01*
X40856Y-27028D01*
X40734Y-27109D01*
X39650Y-28194D01*
X39650Y-27900D01*
X39611Y-27808D01*
X39541Y-27738D01*
X39449Y-27700D01*
X39350Y-27700D01*
X39213Y-27700D01*
X39143Y-27653D01*
X39000Y-27625D01*
X38004Y-27625D01*
X37986Y-27583D01*
X37916Y-27513D01*
X37824Y-27475D01*
X37725Y-27475D01*
X37175Y-27475D01*
X37083Y-27513D01*
X37013Y-27583D01*
X36975Y-27675D01*
X36975Y-27774D01*
X36975Y-28324D01*
X37013Y-28416D01*
X37083Y-28486D01*
X37095Y-28492D01*
X37083Y-28497D01*
X37013Y-28567D01*
X36975Y-28659D01*
X36975Y-28758D01*
X36975Y-29308D01*
X37011Y-29397D01*
X36981Y-29403D01*
X36859Y-29484D01*
X36484Y-29859D01*
X36403Y-29981D01*
X36375Y-30125D01*
X36375Y-30463D01*
X36370Y-30453D01*
X36300Y-30382D01*
X36300Y-30300D01*
X36271Y-30156D01*
X36190Y-30035D01*
X35765Y-29609D01*
X35643Y-29528D01*
X35500Y-29500D01*
X35264Y-29500D01*
X35434Y-29429D01*
X35531Y-29333D01*
X35627Y-29429D01*
X35820Y-29509D01*
X36029Y-29509D01*
X36222Y-29429D01*
X36370Y-29282D01*
X36450Y-29089D01*
X36450Y-28880D01*
X36370Y-28687D01*
X36300Y-28616D01*
X36300Y-28367D01*
X36370Y-28297D01*
X36450Y-28104D01*
X36450Y-27896D01*
X36370Y-27703D01*
X36300Y-27632D01*
X36300Y-27550D01*
X36271Y-27406D01*
X36190Y-27285D01*
X35765Y-26859D01*
X35643Y-26778D01*
X35500Y-26750D01*
X33500Y-26750D01*
X33356Y-26778D01*
X33234Y-26859D01*
X32175Y-27919D01*
X32175Y-25167D01*
X32015Y-24780D01*
X31720Y-24485D01*
X31334Y-24325D01*
X30917Y-24324D01*
X30530Y-24484D01*
X30235Y-24779D01*
X30075Y-25165D01*
X30074Y-25582D01*
X30234Y-25969D01*
X30529Y-26264D01*
X30915Y-26424D01*
X31332Y-26425D01*
X31719Y-26265D01*
X32014Y-25970D01*
X32174Y-25584D01*
X32175Y-25167D01*
X32175Y-27919D01*
X32119Y-27975D01*
X31675Y-27975D01*
X31583Y-28013D01*
X31513Y-28083D01*
X31495Y-28125D01*
X31367Y-28125D01*
X31297Y-28055D01*
X31104Y-27975D01*
X30896Y-27974D01*
X30703Y-28054D01*
X30555Y-28202D01*
X30475Y-28395D01*
X30474Y-28603D01*
X30554Y-28797D01*
X30702Y-28944D01*
X30895Y-29024D01*
X31103Y-29025D01*
X31297Y-28945D01*
X31367Y-28875D01*
X31495Y-28875D01*
X31513Y-28916D01*
X31583Y-28986D01*
X31675Y-29025D01*
X31774Y-29025D01*
X32324Y-29025D01*
X32416Y-28986D01*
X32486Y-28916D01*
X32525Y-28824D01*
X32525Y-28725D01*
X32525Y-28630D01*
X33655Y-27500D01*
X33770Y-27500D01*
X33695Y-27574D01*
X33775Y-27654D01*
X33660Y-27668D01*
X33586Y-27958D01*
X33628Y-28253D01*
X33660Y-28331D01*
X33806Y-28349D01*
X34155Y-28000D01*
X34132Y-27976D01*
X34327Y-27782D01*
X34350Y-27805D01*
X34373Y-27782D01*
X34568Y-27976D01*
X34544Y-28000D01*
X34568Y-28023D01*
X34373Y-28217D01*
X34350Y-28194D01*
X34313Y-28231D01*
X34155Y-28254D01*
X34096Y-28262D01*
X34019Y-28294D01*
X34001Y-28440D01*
X34052Y-28492D01*
X34001Y-28543D01*
X34019Y-28689D01*
X34308Y-28763D01*
X34322Y-28761D01*
X34350Y-28789D01*
X34373Y-28766D01*
X34568Y-28960D01*
X34544Y-28984D01*
X34568Y-29007D01*
X34373Y-29202D01*
X34350Y-29178D01*
X34327Y-29202D01*
X34155Y-29030D01*
X34132Y-29007D01*
X34155Y-28984D01*
X33806Y-28635D01*
X33660Y-28653D01*
X33586Y-28942D01*
X33628Y-29237D01*
X33660Y-29315D01*
X33775Y-29329D01*
X33695Y-29409D01*
X33785Y-29500D01*
X33500Y-29500D01*
X33356Y-29528D01*
X33234Y-29609D01*
X32119Y-30725D01*
X31675Y-30725D01*
X31583Y-30763D01*
X31513Y-30833D01*
X31495Y-30875D01*
X31367Y-30875D01*
X31297Y-30805D01*
X31104Y-30725D01*
X30896Y-30724D01*
X30703Y-30804D01*
X30555Y-30952D01*
X30475Y-31145D01*
X30474Y-31353D01*
X30554Y-31547D01*
X30702Y-31694D01*
X30895Y-31774D01*
X31103Y-31775D01*
X31297Y-31695D01*
X31367Y-31625D01*
X31495Y-31625D01*
X31513Y-31666D01*
X31583Y-31736D01*
X31675Y-31775D01*
X31774Y-31775D01*
X32324Y-31775D01*
X32416Y-31736D01*
X32486Y-31666D01*
X32525Y-31574D01*
X32525Y-31475D01*
X32525Y-31380D01*
X33655Y-30250D01*
X33770Y-30250D01*
X33695Y-30324D01*
X33775Y-30404D01*
X33660Y-30418D01*
X33586Y-30708D01*
X33628Y-31003D01*
X33660Y-31081D01*
X33806Y-31099D01*
X34155Y-30750D01*
X34132Y-30726D01*
X34327Y-30532D01*
X34350Y-30555D01*
X34373Y-30532D01*
X34568Y-30726D01*
X34544Y-30750D01*
X34568Y-30773D01*
X34373Y-30967D01*
X34350Y-30944D01*
X34313Y-30981D01*
X34155Y-31004D01*
X34096Y-31012D01*
X34019Y-31044D01*
X34001Y-31190D01*
X34052Y-31242D01*
X34001Y-31293D01*
X34019Y-31439D01*
X34308Y-31513D01*
X34322Y-31511D01*
X34350Y-31539D01*
X34373Y-31516D01*
X34568Y-31710D01*
X34544Y-31734D01*
X34568Y-31757D01*
X34373Y-31952D01*
X34350Y-31928D01*
X34327Y-31952D01*
X34155Y-31780D01*
X34132Y-31757D01*
X34155Y-31734D01*
X33806Y-31385D01*
X33660Y-31403D01*
X33586Y-31692D01*
X33628Y-31987D01*
X33660Y-32065D01*
X33775Y-32079D01*
X33695Y-32159D01*
X33785Y-32250D01*
X33500Y-32250D01*
X33356Y-32278D01*
X33234Y-32359D01*
X32119Y-33475D01*
X31675Y-33475D01*
X31583Y-33513D01*
X31513Y-33583D01*
X31495Y-33625D01*
X31367Y-33625D01*
X31297Y-33555D01*
X31104Y-33475D01*
X30896Y-33474D01*
X30703Y-33554D01*
X30555Y-33702D01*
X30475Y-33895D01*
X30474Y-34103D01*
X30554Y-34297D01*
X30702Y-34444D01*
X30895Y-34524D01*
X31103Y-34525D01*
X31297Y-34445D01*
X31367Y-34375D01*
X31495Y-34375D01*
X31513Y-34416D01*
X31583Y-34486D01*
X31675Y-34525D01*
X31774Y-34525D01*
X32324Y-34525D01*
X32416Y-34486D01*
X32486Y-34416D01*
X32525Y-34324D01*
X32525Y-34225D01*
X32525Y-34130D01*
X33655Y-33000D01*
X33770Y-33000D01*
X33695Y-33074D01*
X33775Y-33154D01*
X33660Y-33168D01*
X33586Y-33458D01*
X33628Y-33753D01*
X33660Y-33831D01*
X33806Y-33849D01*
X34155Y-33500D01*
X34132Y-33476D01*
X34327Y-33282D01*
X34350Y-33305D01*
X34373Y-33282D01*
X34568Y-33476D01*
X34544Y-33500D01*
X34568Y-33523D01*
X34373Y-33717D01*
X34350Y-33694D01*
X34313Y-33731D01*
X34155Y-33754D01*
X34096Y-33762D01*
X34019Y-33794D01*
X34001Y-33940D01*
X34052Y-33992D01*
X34001Y-34043D01*
X34019Y-34189D01*
X34308Y-34263D01*
X34322Y-34261D01*
X34350Y-34289D01*
X34373Y-34266D01*
X34568Y-34460D01*
X34544Y-34484D01*
X34568Y-34507D01*
X34373Y-34702D01*
X34350Y-34678D01*
X34327Y-34702D01*
X34155Y-34530D01*
X34132Y-34507D01*
X34155Y-34484D01*
X33806Y-34135D01*
X33660Y-34153D01*
X33586Y-34442D01*
X33628Y-34737D01*
X33660Y-34815D01*
X33775Y-34829D01*
X33695Y-34909D01*
X33785Y-35000D01*
X33500Y-35000D01*
X33356Y-35028D01*
X33234Y-35109D01*
X32119Y-36225D01*
X31675Y-36225D01*
X31583Y-36263D01*
X31513Y-36333D01*
X31495Y-36375D01*
X31367Y-36375D01*
X31297Y-36305D01*
X31104Y-36225D01*
X30896Y-36224D01*
X30703Y-36304D01*
X30555Y-36452D01*
X30475Y-36645D01*
X30474Y-36853D01*
X30554Y-37047D01*
X30702Y-37194D01*
X30895Y-37274D01*
X31103Y-37275D01*
X31297Y-37195D01*
X31367Y-37125D01*
X31495Y-37125D01*
X31513Y-37166D01*
X31583Y-37236D01*
X31675Y-37275D01*
X31774Y-37275D01*
X32324Y-37275D01*
X32416Y-37236D01*
X32486Y-37166D01*
X32525Y-37074D01*
X32525Y-36975D01*
X32525Y-36880D01*
X33655Y-35750D01*
X33770Y-35750D01*
X33695Y-35824D01*
X33775Y-35904D01*
X33660Y-35918D01*
X33586Y-36208D01*
X33628Y-36503D01*
X33660Y-36581D01*
X33806Y-36599D01*
X34155Y-36250D01*
X34132Y-36226D01*
X34327Y-36032D01*
X34350Y-36055D01*
X34373Y-36032D01*
X34568Y-36226D01*
X34544Y-36250D01*
X34568Y-36273D01*
X34373Y-36467D01*
X34350Y-36444D01*
X34313Y-36481D01*
X34155Y-36504D01*
X34096Y-36512D01*
X34019Y-36544D01*
X34001Y-36690D01*
X34052Y-36742D01*
X34001Y-36793D01*
X34019Y-36939D01*
X34308Y-37013D01*
X34322Y-37011D01*
X34350Y-37039D01*
X34373Y-37016D01*
X34568Y-37210D01*
X34544Y-37234D01*
X34568Y-37257D01*
X34373Y-37452D01*
X34350Y-37428D01*
X34327Y-37452D01*
X34155Y-37280D01*
X34132Y-37257D01*
X34155Y-37234D01*
X33806Y-36885D01*
X33660Y-36903D01*
X33586Y-37192D01*
X33628Y-37487D01*
X33660Y-37565D01*
X33775Y-37579D01*
X33695Y-37659D01*
X33785Y-37750D01*
X33500Y-37750D01*
X33356Y-37778D01*
X33234Y-37859D01*
X32119Y-38975D01*
X31675Y-38975D01*
X31583Y-39013D01*
X31513Y-39083D01*
X31495Y-39125D01*
X31367Y-39125D01*
X31297Y-39055D01*
X31104Y-38975D01*
X30896Y-38974D01*
X30703Y-39054D01*
X30555Y-39202D01*
X30475Y-39395D01*
X30474Y-39603D01*
X30554Y-39797D01*
X30702Y-39944D01*
X30895Y-40024D01*
X31103Y-40025D01*
X31297Y-39945D01*
X31367Y-39875D01*
X31495Y-39875D01*
X31513Y-39916D01*
X31583Y-39986D01*
X31675Y-40025D01*
X31774Y-40025D01*
X32324Y-40025D01*
X32416Y-39986D01*
X32486Y-39916D01*
X32525Y-39824D01*
X32525Y-39725D01*
X32525Y-39630D01*
X33655Y-38500D01*
X33770Y-38500D01*
X33695Y-38574D01*
X33775Y-38654D01*
X33660Y-38668D01*
X33586Y-38958D01*
X33628Y-39253D01*
X33660Y-39331D01*
X33806Y-39349D01*
X34155Y-39000D01*
X34132Y-38976D01*
X34327Y-38782D01*
X34350Y-38805D01*
X34373Y-38782D01*
X34568Y-38976D01*
X34544Y-39000D01*
X34568Y-39023D01*
X34373Y-39217D01*
X34350Y-39194D01*
X34313Y-39231D01*
X34155Y-39254D01*
X34096Y-39262D01*
X34019Y-39294D01*
X34001Y-39440D01*
X34052Y-39492D01*
X34001Y-39543D01*
X34019Y-39689D01*
X34308Y-39763D01*
X34322Y-39761D01*
X34350Y-39789D01*
X34373Y-39766D01*
X34568Y-39960D01*
X34544Y-39984D01*
X34568Y-40007D01*
X34373Y-40202D01*
X34350Y-40178D01*
X34327Y-40202D01*
X34155Y-40030D01*
X34132Y-40007D01*
X34155Y-39984D01*
X33806Y-39635D01*
X33660Y-39653D01*
X33586Y-39942D01*
X33628Y-40237D01*
X33660Y-40315D01*
X33775Y-40329D01*
X33695Y-40409D01*
X33785Y-40500D01*
X33500Y-40500D01*
X33356Y-40528D01*
X33234Y-40609D01*
X32119Y-41725D01*
X31675Y-41725D01*
X31583Y-41763D01*
X31513Y-41833D01*
X31495Y-41875D01*
X31367Y-41875D01*
X31297Y-41805D01*
X31104Y-41725D01*
X30896Y-41724D01*
X30703Y-41804D01*
X30555Y-41952D01*
X30475Y-42145D01*
X30474Y-42353D01*
X30554Y-42547D01*
X30702Y-42694D01*
X30895Y-42774D01*
X31103Y-42775D01*
X31297Y-42695D01*
X31367Y-42625D01*
X31495Y-42625D01*
X31513Y-42666D01*
X31583Y-42736D01*
X31675Y-42775D01*
X31774Y-42775D01*
X32324Y-42775D01*
X32416Y-42736D01*
X32486Y-42666D01*
X32525Y-42574D01*
X32525Y-42475D01*
X32525Y-42380D01*
X33655Y-41250D01*
X33770Y-41250D01*
X33695Y-41324D01*
X33775Y-41404D01*
X33660Y-41418D01*
X33586Y-41708D01*
X33628Y-42003D01*
X33660Y-42081D01*
X33806Y-42099D01*
X34155Y-41750D01*
X34132Y-41726D01*
X34327Y-41532D01*
X34350Y-41555D01*
X34373Y-41532D01*
X34568Y-41726D01*
X34544Y-41750D01*
X34568Y-41773D01*
X34373Y-41967D01*
X34350Y-41944D01*
X34313Y-41981D01*
X34155Y-42004D01*
X34096Y-42012D01*
X34019Y-42044D01*
X34001Y-42190D01*
X34052Y-42242D01*
X34001Y-42293D01*
X34019Y-42439D01*
X34308Y-42513D01*
X34322Y-42511D01*
X34350Y-42539D01*
X34373Y-42516D01*
X34568Y-42710D01*
X34544Y-42734D01*
X34568Y-42757D01*
X34373Y-42952D01*
X34350Y-42928D01*
X34327Y-42952D01*
X34155Y-42780D01*
X34132Y-42757D01*
X34155Y-42734D01*
X33806Y-42385D01*
X33660Y-42403D01*
X33586Y-42692D01*
X33628Y-42987D01*
X33660Y-43065D01*
X33775Y-43079D01*
X33695Y-43159D01*
X33785Y-43250D01*
X33500Y-43250D01*
X33356Y-43278D01*
X33234Y-43359D01*
X32119Y-44475D01*
X31675Y-44475D01*
X31583Y-44513D01*
X31513Y-44583D01*
X31495Y-44625D01*
X31367Y-44625D01*
X31297Y-44555D01*
X31104Y-44475D01*
X30896Y-44474D01*
X30703Y-44554D01*
X30555Y-44702D01*
X30475Y-44895D01*
X30474Y-45103D01*
X30554Y-45297D01*
X30702Y-45444D01*
X30895Y-45524D01*
X31103Y-45525D01*
X31297Y-45445D01*
X31367Y-45375D01*
X31495Y-45375D01*
X31513Y-45416D01*
X31583Y-45486D01*
X31675Y-45525D01*
X31774Y-45525D01*
X32324Y-45525D01*
X32416Y-45486D01*
X32486Y-45416D01*
X32525Y-45324D01*
X32525Y-45225D01*
X32525Y-45130D01*
X33655Y-44000D01*
X33770Y-44000D01*
X33695Y-44074D01*
X33775Y-44154D01*
X33660Y-44168D01*
X33586Y-44458D01*
X33628Y-44753D01*
X33660Y-44831D01*
X33806Y-44849D01*
X34155Y-44500D01*
X34132Y-44476D01*
X34327Y-44282D01*
X34350Y-44305D01*
X34373Y-44282D01*
X34568Y-44476D01*
X34544Y-44500D01*
X34568Y-44523D01*
X34373Y-44717D01*
X34350Y-44694D01*
X34313Y-44731D01*
X34155Y-44754D01*
X34096Y-44762D01*
X34019Y-44794D01*
X34001Y-44940D01*
X34052Y-44992D01*
X34001Y-45043D01*
X34019Y-45189D01*
X34308Y-45263D01*
X34322Y-45261D01*
X34350Y-45289D01*
X34373Y-45266D01*
X34568Y-45460D01*
X34544Y-45484D01*
X34568Y-45507D01*
X34373Y-45702D01*
X34350Y-45678D01*
X34327Y-45702D01*
X34155Y-45530D01*
X34132Y-45507D01*
X34155Y-45484D01*
X33806Y-45135D01*
X33660Y-45153D01*
X33586Y-45442D01*
X33628Y-45737D01*
X33660Y-45815D01*
X33775Y-45829D01*
X33695Y-45909D01*
X33785Y-46000D01*
X33500Y-46000D01*
X33356Y-46028D01*
X33234Y-46109D01*
X32119Y-47225D01*
X31675Y-47225D01*
X31583Y-47263D01*
X31513Y-47333D01*
X31495Y-47375D01*
X31367Y-47375D01*
X31297Y-47305D01*
X31104Y-47225D01*
X30896Y-47224D01*
X30703Y-47304D01*
X30555Y-47452D01*
X30475Y-47645D01*
X30474Y-47853D01*
X30554Y-48047D01*
X30702Y-48194D01*
X30895Y-48274D01*
X31103Y-48275D01*
X31297Y-48195D01*
X31367Y-48125D01*
X31495Y-48125D01*
X31513Y-48166D01*
X31583Y-48236D01*
X31675Y-48275D01*
X31774Y-48275D01*
X32324Y-48275D01*
X32416Y-48236D01*
X32486Y-48166D01*
X32525Y-48074D01*
X32525Y-47975D01*
X32525Y-47880D01*
X33655Y-46750D01*
X33770Y-46750D01*
X33695Y-46824D01*
X33775Y-46904D01*
X33660Y-46918D01*
X33586Y-47208D01*
X33628Y-47503D01*
X33660Y-47581D01*
X33806Y-47599D01*
X34155Y-47250D01*
X34132Y-47226D01*
X34327Y-47032D01*
X34350Y-47055D01*
X34373Y-47032D01*
X34568Y-47226D01*
X34544Y-47250D01*
X34568Y-47273D01*
X34373Y-47467D01*
X34350Y-47444D01*
X34313Y-47481D01*
X34155Y-47504D01*
X34096Y-47512D01*
X34019Y-47544D01*
X34001Y-47690D01*
X34052Y-47742D01*
X34001Y-47793D01*
X34019Y-47939D01*
X34308Y-48013D01*
X34322Y-48011D01*
X34350Y-48039D01*
X34373Y-48016D01*
X34568Y-48210D01*
X34544Y-48234D01*
X34612Y-48302D01*
X34612Y-48338D01*
X34692Y-48531D01*
X34840Y-48679D01*
X35032Y-48759D01*
X35241Y-48759D01*
X35434Y-48679D01*
X35531Y-48583D01*
X35627Y-48679D01*
X35820Y-48759D01*
X36029Y-48759D01*
X36222Y-48679D01*
X36370Y-48532D01*
X36375Y-48520D01*
X36375Y-48875D01*
X34687Y-48875D01*
X34699Y-48777D01*
X34350Y-48428D01*
X34155Y-48623D01*
X34155Y-48234D01*
X33806Y-47885D01*
X33660Y-47903D01*
X33586Y-48192D01*
X33628Y-48487D01*
X33660Y-48565D01*
X33806Y-48583D01*
X34155Y-48234D01*
X34155Y-48623D01*
X34001Y-48777D01*
X34013Y-48875D01*
X31750Y-48875D01*
X31606Y-48903D01*
X31484Y-48984D01*
X29984Y-50484D01*
X29903Y-50606D01*
X29875Y-50750D01*
X29875Y-54875D01*
X29903Y-55018D01*
X29984Y-55140D01*
X31370Y-56525D01*
X31100Y-57175D01*
X31099Y-58070D01*
X31441Y-58897D01*
X32073Y-59531D01*
X32900Y-59874D01*
X33795Y-59875D01*
X34622Y-59533D01*
X35256Y-58901D01*
X35599Y-58074D01*
X35599Y-57975D01*
X37605Y-57975D01*
X38395Y-58764D01*
X38395Y-59395D01*
X38285Y-59286D01*
X38111Y-59213D01*
X37921Y-59213D01*
X37904Y-59213D01*
X37785Y-59332D01*
X37785Y-60018D01*
X37793Y-60018D01*
X37793Y-60343D01*
X37785Y-60343D01*
X37785Y-61029D01*
X37904Y-61148D01*
X37921Y-61148D01*
X38082Y-61148D01*
X38081Y-61249D01*
X38146Y-61406D01*
X38266Y-61526D01*
X38423Y-61591D01*
X38593Y-61592D01*
X38750Y-61527D01*
X38870Y-61407D01*
X38935Y-61250D01*
X38935Y-61180D01*
X39167Y-61412D01*
X39281Y-61488D01*
X39415Y-61515D01*
X39987Y-61515D01*
X39998Y-61526D01*
X40155Y-61591D01*
X40325Y-61592D01*
X40482Y-61527D01*
X40602Y-61407D01*
X40667Y-61250D01*
X40668Y-61080D01*
X40603Y-60923D01*
X40517Y-60837D01*
X40525Y-60818D01*
X40591Y-60884D01*
X40683Y-60923D01*
X40783Y-60923D01*
X41570Y-60923D01*
X41662Y-60884D01*
X41732Y-60814D01*
X41770Y-60722D01*
X41770Y-60623D01*
X41770Y-59639D01*
X41732Y-59547D01*
X41662Y-59477D01*
X41570Y-59439D01*
X41470Y-59439D01*
X40683Y-59439D01*
X40591Y-59477D01*
X40548Y-59520D01*
X40506Y-59419D01*
X40372Y-59286D01*
X40198Y-59213D01*
X40173Y-59213D01*
X40112Y-59274D01*
X40112Y-53256D01*
X40112Y-52762D01*
X40112Y-52487D01*
X40112Y-51993D01*
X39993Y-51874D01*
X39880Y-51874D01*
X39705Y-51947D01*
X39572Y-52080D01*
X39499Y-52255D01*
X39499Y-52368D01*
X39618Y-52487D01*
X40112Y-52487D01*
X40112Y-52762D01*
X39618Y-52762D01*
X39499Y-52881D01*
X39499Y-52994D01*
X39572Y-53169D01*
X39705Y-53302D01*
X39880Y-53375D01*
X39993Y-53375D01*
X40112Y-53256D01*
X40112Y-59274D01*
X40079Y-59307D01*
X40057Y-59286D01*
X39883Y-59213D01*
X39858Y-59213D01*
X39847Y-59224D01*
X39836Y-59213D01*
X39811Y-59213D01*
X39637Y-59286D01*
X39615Y-59307D01*
X39521Y-59213D01*
X39496Y-59213D01*
X39322Y-59286D01*
X39188Y-59419D01*
X39180Y-59439D01*
X39108Y-59439D01*
X39095Y-59439D01*
X39095Y-58620D01*
X39068Y-58486D01*
X39068Y-58486D01*
X38992Y-58372D01*
X37997Y-57377D01*
X37883Y-57301D01*
X37750Y-57275D01*
X37362Y-57275D01*
X37362Y-54256D01*
X37362Y-53762D01*
X36868Y-53762D01*
X36749Y-53881D01*
X36749Y-53994D01*
X36822Y-54169D01*
X36955Y-54302D01*
X37130Y-54375D01*
X37243Y-54375D01*
X37362Y-54256D01*
X37362Y-57275D01*
X35600Y-57275D01*
X35600Y-57179D01*
X35487Y-56906D01*
X35487Y-53256D01*
X35487Y-52762D01*
X35487Y-52487D01*
X35487Y-51993D01*
X35368Y-51874D01*
X35255Y-51874D01*
X35080Y-51947D01*
X34947Y-52080D01*
X34874Y-52255D01*
X34874Y-52368D01*
X34993Y-52487D01*
X35487Y-52487D01*
X35487Y-52762D01*
X34993Y-52762D01*
X34874Y-52881D01*
X34874Y-52994D01*
X34947Y-53169D01*
X35080Y-53302D01*
X35255Y-53375D01*
X35368Y-53375D01*
X35487Y-53256D01*
X35487Y-56906D01*
X35258Y-56352D01*
X34626Y-55718D01*
X33799Y-55375D01*
X32904Y-55374D01*
X32737Y-55443D01*
X32737Y-54256D01*
X32737Y-53762D01*
X32243Y-53762D01*
X32124Y-53881D01*
X32124Y-53994D01*
X32197Y-54169D01*
X32330Y-54302D01*
X32505Y-54375D01*
X32618Y-54375D01*
X32737Y-54256D01*
X32737Y-55443D01*
X32077Y-55716D01*
X31849Y-55943D01*
X30625Y-54719D01*
X30625Y-53372D01*
X30630Y-53375D01*
X30743Y-53375D01*
X30862Y-53256D01*
X30862Y-52762D01*
X30829Y-52762D01*
X30829Y-52487D01*
X30862Y-52487D01*
X30862Y-51993D01*
X30743Y-51874D01*
X30630Y-51874D01*
X30625Y-51877D01*
X30625Y-50905D01*
X31905Y-49625D01*
X32719Y-49625D01*
X31734Y-50609D01*
X31653Y-50731D01*
X31625Y-50875D01*
X31625Y-51257D01*
X31555Y-51327D01*
X31475Y-51520D01*
X31474Y-51728D01*
X31554Y-51922D01*
X31702Y-52069D01*
X31835Y-52125D01*
X31716Y-52174D01*
X31677Y-52080D01*
X31544Y-51947D01*
X31369Y-51874D01*
X31256Y-51874D01*
X31137Y-51993D01*
X31137Y-52487D01*
X31170Y-52487D01*
X31170Y-52762D01*
X31137Y-52762D01*
X31137Y-53256D01*
X31256Y-53375D01*
X31369Y-53375D01*
X31544Y-53302D01*
X31677Y-53169D01*
X31716Y-53075D01*
X31895Y-53149D01*
X32103Y-53150D01*
X32181Y-53117D01*
X32124Y-53255D01*
X32124Y-53368D01*
X32243Y-53487D01*
X32737Y-53487D01*
X32737Y-52993D01*
X32618Y-52874D01*
X32505Y-52874D01*
X32456Y-52895D01*
X32524Y-52729D01*
X32525Y-52521D01*
X32445Y-52328D01*
X32297Y-52180D01*
X32164Y-52124D01*
X32297Y-52070D01*
X32444Y-51922D01*
X32524Y-51729D01*
X32525Y-51521D01*
X32445Y-51328D01*
X32375Y-51257D01*
X32375Y-51030D01*
X33155Y-50250D01*
X34719Y-50250D01*
X33609Y-51359D01*
X33528Y-51481D01*
X33500Y-51625D01*
X33500Y-52257D01*
X33430Y-52327D01*
X33350Y-52520D01*
X33349Y-52728D01*
X33429Y-52922D01*
X33577Y-53069D01*
X33710Y-53125D01*
X33591Y-53174D01*
X33552Y-53080D01*
X33419Y-52947D01*
X33244Y-52874D01*
X33131Y-52874D01*
X33012Y-52993D01*
X33012Y-53487D01*
X33045Y-53487D01*
X33045Y-53762D01*
X33012Y-53762D01*
X33012Y-54256D01*
X33131Y-54375D01*
X33244Y-54375D01*
X33419Y-54302D01*
X33552Y-54169D01*
X33591Y-54075D01*
X33770Y-54149D01*
X33978Y-54150D01*
X34172Y-54070D01*
X34319Y-53922D01*
X34399Y-53729D01*
X34400Y-53521D01*
X34320Y-53328D01*
X34172Y-53180D01*
X34039Y-53124D01*
X34172Y-53070D01*
X34319Y-52922D01*
X34399Y-52729D01*
X34400Y-52521D01*
X34320Y-52328D01*
X34250Y-52257D01*
X34250Y-51780D01*
X35280Y-50750D01*
X36969Y-50750D01*
X36619Y-51099D01*
X36521Y-51099D01*
X36328Y-51179D01*
X36180Y-51327D01*
X36100Y-51520D01*
X36099Y-51728D01*
X36179Y-51922D01*
X36327Y-52069D01*
X36460Y-52125D01*
X36341Y-52174D01*
X36302Y-52080D01*
X36169Y-51947D01*
X35994Y-51874D01*
X35881Y-51874D01*
X35762Y-51993D01*
X35762Y-52487D01*
X35795Y-52487D01*
X35795Y-52762D01*
X35762Y-52762D01*
X35762Y-53256D01*
X35881Y-53375D01*
X35994Y-53375D01*
X36169Y-53302D01*
X36302Y-53169D01*
X36341Y-53075D01*
X36520Y-53149D01*
X36728Y-53150D01*
X36806Y-53117D01*
X36749Y-53255D01*
X36749Y-53368D01*
X36868Y-53487D01*
X37362Y-53487D01*
X37362Y-52993D01*
X37243Y-52874D01*
X37130Y-52874D01*
X37081Y-52895D01*
X37149Y-52729D01*
X37150Y-52521D01*
X37070Y-52328D01*
X36922Y-52180D01*
X36789Y-52124D01*
X36922Y-52070D01*
X37069Y-51922D01*
X37149Y-51729D01*
X37149Y-51630D01*
X37530Y-51250D01*
X38969Y-51250D01*
X38359Y-51859D01*
X38234Y-51984D01*
X38153Y-52106D01*
X38125Y-52250D01*
X38125Y-52257D01*
X38055Y-52327D01*
X37975Y-52520D01*
X37974Y-52728D01*
X38054Y-52922D01*
X38202Y-53069D01*
X38335Y-53125D01*
X38216Y-53174D01*
X38177Y-53080D01*
X38044Y-52947D01*
X37869Y-52874D01*
X37756Y-52874D01*
X37637Y-52993D01*
X37637Y-53487D01*
X37670Y-53487D01*
X37670Y-53762D01*
X37637Y-53762D01*
X37637Y-54256D01*
X37756Y-54375D01*
X37869Y-54375D01*
X38044Y-54302D01*
X38177Y-54169D01*
X38216Y-54075D01*
X38395Y-54149D01*
X38603Y-54150D01*
X38797Y-54070D01*
X38944Y-53922D01*
X39024Y-53729D01*
X39025Y-53521D01*
X38945Y-53328D01*
X38797Y-53180D01*
X38664Y-53124D01*
X38797Y-53070D01*
X38944Y-52922D01*
X39024Y-52729D01*
X39025Y-52521D01*
X38947Y-52332D01*
X40898Y-50381D01*
X40875Y-50500D01*
X40875Y-51257D01*
X40805Y-51327D01*
X40725Y-51520D01*
X40724Y-51728D01*
X40804Y-51922D01*
X40952Y-52069D01*
X41085Y-52125D01*
X40966Y-52174D01*
X40927Y-52080D01*
X40794Y-51947D01*
X40619Y-51874D01*
X40506Y-51874D01*
X40387Y-51993D01*
X40387Y-52487D01*
X40420Y-52487D01*
X40420Y-52762D01*
X40387Y-52762D01*
X40387Y-53256D01*
X40506Y-53375D01*
X40619Y-53375D01*
X40794Y-53302D01*
X40927Y-53169D01*
X40966Y-53075D01*
X41145Y-53149D01*
X41353Y-53150D01*
X41431Y-53117D01*
X41374Y-53255D01*
X41374Y-53368D01*
X41493Y-53487D01*
X41987Y-53487D01*
X41987Y-52993D01*
X41868Y-52874D01*
X41755Y-52874D01*
X41706Y-52895D01*
X41774Y-52729D01*
X41775Y-52521D01*
X41695Y-52328D01*
X41547Y-52180D01*
X41414Y-52124D01*
X41547Y-52070D01*
X41694Y-51922D01*
X41774Y-51729D01*
X41775Y-51521D01*
X41695Y-51328D01*
X41625Y-51257D01*
X41625Y-50655D01*
X41765Y-50515D01*
X42250Y-50030D01*
X42250Y-51125D01*
X42250Y-52125D01*
X42278Y-52268D01*
X42359Y-52390D01*
X42599Y-52630D01*
X42599Y-52728D01*
X42679Y-52922D01*
X42827Y-53069D01*
X42960Y-53125D01*
X42841Y-53174D01*
X42802Y-53080D01*
X42669Y-52947D01*
X42494Y-52874D01*
X42381Y-52874D01*
X42262Y-52993D01*
X42262Y-53487D01*
X42295Y-53487D01*
X42295Y-53762D01*
X42262Y-53762D01*
X42262Y-54256D01*
X42381Y-54375D01*
X42494Y-54375D01*
X42669Y-54302D01*
X42802Y-54169D01*
X42841Y-54075D01*
X43020Y-54149D01*
X43228Y-54150D01*
X43422Y-54070D01*
X43569Y-53922D01*
X43649Y-53729D01*
X43650Y-53521D01*
X43570Y-53328D01*
X43422Y-53180D01*
X43289Y-53124D01*
X43422Y-53070D01*
X43569Y-52922D01*
X43649Y-52729D01*
X43650Y-52521D01*
X43570Y-52328D01*
X43422Y-52180D01*
X43229Y-52100D01*
X43130Y-52100D01*
X43000Y-51969D01*
X43000Y-51125D01*
X43000Y-49905D01*
X43984Y-50890D01*
X44859Y-51765D01*
X44981Y-51846D01*
X45125Y-51875D01*
X45131Y-51875D01*
X45012Y-51993D01*
X45012Y-52487D01*
X45045Y-52487D01*
X45045Y-52762D01*
X45012Y-52762D01*
X45012Y-53256D01*
X45131Y-53375D01*
X45244Y-53375D01*
X45419Y-53302D01*
X45552Y-53169D01*
X45591Y-53075D01*
X45770Y-53149D01*
X45978Y-53150D01*
X46056Y-53117D01*
X45999Y-53255D01*
X45999Y-53368D01*
X46118Y-53487D01*
X46612Y-53487D01*
X46612Y-52993D01*
X46493Y-52874D01*
X46380Y-52874D01*
X46331Y-52895D01*
X46399Y-52729D01*
X46400Y-52521D01*
X46320Y-52328D01*
X46172Y-52180D01*
X46039Y-52124D01*
X46172Y-52070D01*
X46319Y-51922D01*
X46399Y-51729D01*
X46400Y-51521D01*
X46320Y-51328D01*
X46172Y-51180D01*
X45979Y-51100D01*
X45771Y-51099D01*
X45710Y-51125D01*
X45280Y-51125D01*
X44515Y-50359D01*
X44405Y-50250D01*
X46500Y-50250D01*
X46594Y-50250D01*
X47375Y-51030D01*
X47375Y-52257D01*
X47305Y-52327D01*
X47225Y-52520D01*
X47224Y-52728D01*
X47304Y-52922D01*
X47452Y-53069D01*
X47585Y-53125D01*
X47466Y-53174D01*
X47427Y-53080D01*
X47294Y-52947D01*
X47119Y-52874D01*
X47006Y-52874D01*
X46887Y-52993D01*
X46887Y-53487D01*
X46920Y-53487D01*
X46920Y-53762D01*
X46887Y-53762D01*
X46887Y-54256D01*
X47006Y-54375D01*
X47119Y-54375D01*
X47294Y-54302D01*
X47427Y-54169D01*
X47466Y-54075D01*
X47645Y-54149D01*
X47853Y-54150D01*
X48047Y-54070D01*
X48194Y-53922D01*
X48274Y-53729D01*
X48275Y-53521D01*
X48275Y-60803D01*
X48265Y-60780D01*
X47970Y-60485D01*
X47636Y-60346D01*
X47636Y-58054D01*
X47612Y-57070D01*
X47283Y-56276D01*
X46961Y-56043D01*
X46731Y-56273D01*
X46731Y-55813D01*
X46612Y-55648D01*
X46612Y-54256D01*
X46612Y-53762D01*
X46118Y-53762D01*
X45999Y-53881D01*
X45999Y-53994D01*
X46072Y-54169D01*
X46205Y-54302D01*
X46380Y-54375D01*
X46493Y-54375D01*
X46612Y-54256D01*
X46612Y-55648D01*
X46498Y-55491D01*
X45579Y-55138D01*
X44737Y-55159D01*
X44737Y-53256D01*
X44737Y-52762D01*
X44737Y-52487D01*
X44737Y-51993D01*
X44618Y-51874D01*
X44505Y-51874D01*
X44330Y-51947D01*
X44197Y-52080D01*
X44124Y-52255D01*
X44124Y-52368D01*
X44243Y-52487D01*
X44737Y-52487D01*
X44737Y-52762D01*
X44243Y-52762D01*
X44124Y-52881D01*
X44124Y-52994D01*
X44197Y-53169D01*
X44330Y-53302D01*
X44505Y-53375D01*
X44618Y-53375D01*
X44737Y-53256D01*
X44737Y-55159D01*
X44595Y-55162D01*
X43801Y-55491D01*
X43568Y-55813D01*
X45150Y-57395D01*
X46731Y-55813D01*
X46731Y-56273D01*
X45379Y-57625D01*
X46961Y-59206D01*
X47283Y-58973D01*
X47636Y-58054D01*
X47636Y-60346D01*
X47584Y-60325D01*
X47167Y-60324D01*
X46780Y-60484D01*
X46731Y-60533D01*
X46731Y-59436D01*
X45150Y-57854D01*
X44920Y-58084D01*
X44920Y-57625D01*
X43338Y-56043D01*
X43016Y-56276D01*
X42663Y-57195D01*
X42687Y-58179D01*
X43016Y-58973D01*
X43338Y-59206D01*
X44920Y-57625D01*
X44920Y-58084D01*
X43568Y-59436D01*
X43801Y-59758D01*
X44720Y-60111D01*
X45704Y-60087D01*
X46498Y-59758D01*
X46731Y-59436D01*
X46731Y-60533D01*
X46485Y-60779D01*
X46325Y-61165D01*
X46324Y-61582D01*
X46484Y-61969D01*
X46779Y-62264D01*
X47165Y-62424D01*
X47582Y-62425D01*
X47969Y-62265D01*
X48264Y-61970D01*
X48424Y-61584D01*
X48425Y-61167D01*
X48425Y-62720D01*
X41987Y-62720D01*
X41987Y-54256D01*
X41987Y-53762D01*
X41493Y-53762D01*
X41374Y-53881D01*
X41374Y-53994D01*
X41447Y-54169D01*
X41580Y-54302D01*
X41755Y-54375D01*
X41868Y-54375D01*
X41987Y-54256D01*
X41987Y-62720D01*
X41770Y-62720D01*
X41770Y-61804D01*
X41732Y-61712D01*
X41662Y-61642D01*
X41570Y-61604D01*
X41470Y-61604D01*
X40683Y-61604D01*
X40591Y-61642D01*
X40521Y-61712D01*
X40483Y-61804D01*
X40483Y-61903D01*
X40483Y-62720D01*
X38266Y-62720D01*
X38266Y-61804D01*
X38228Y-61712D01*
X38158Y-61642D01*
X38066Y-61604D01*
X37966Y-61604D01*
X37460Y-61604D01*
X37460Y-61029D01*
X37460Y-60343D01*
X37460Y-60018D01*
X37460Y-59332D01*
X37341Y-59213D01*
X37324Y-59213D01*
X37134Y-59213D01*
X36960Y-59286D01*
X36826Y-59419D01*
X36754Y-59594D01*
X36754Y-59899D01*
X36873Y-60018D01*
X37460Y-60018D01*
X37460Y-60343D01*
X36873Y-60343D01*
X36754Y-60462D01*
X36754Y-60767D01*
X36826Y-60942D01*
X36960Y-61075D01*
X37134Y-61148D01*
X37324Y-61148D01*
X37341Y-61148D01*
X37460Y-61029D01*
X37460Y-61604D01*
X37179Y-61604D01*
X37087Y-61642D01*
X37017Y-61712D01*
X36979Y-61804D01*
X36979Y-61903D01*
X36979Y-62720D01*
X32175Y-62720D01*
X32175Y-61167D01*
X32015Y-60780D01*
X31720Y-60485D01*
X31334Y-60325D01*
X30917Y-60324D01*
X30530Y-60484D01*
X30235Y-60779D01*
X30075Y-61165D01*
X30074Y-61582D01*
X30234Y-61969D01*
X30529Y-62264D01*
X30915Y-62424D01*
X31332Y-62425D01*
X31719Y-62265D01*
X32014Y-61970D01*
X32174Y-61584D01*
X32175Y-61167D01*
X32175Y-62720D01*
X29779Y-62720D01*
X29779Y-24029D01*
X48720Y-24029D01*
X48720Y-62720D01*
X48720Y-62720D01*
G37*
G54D22*
X48720Y-62720D02*
X48425Y-62720D01*
X48425Y-61167D01*
X48425Y-25167D01*
X48265Y-24780D01*
X47970Y-24485D01*
X47584Y-24325D01*
X47167Y-24324D01*
X46780Y-24484D01*
X46485Y-24779D01*
X46325Y-25165D01*
X46324Y-25582D01*
X46484Y-25969D01*
X46779Y-26264D01*
X47165Y-26424D01*
X47582Y-26425D01*
X47969Y-26265D01*
X48264Y-25970D01*
X48424Y-25584D01*
X48425Y-25167D01*
X48425Y-61167D01*
X48275Y-60803D01*
X48275Y-53521D01*
X48195Y-53328D01*
X48047Y-53180D01*
X47914Y-53124D01*
X48047Y-53070D01*
X48194Y-52922D01*
X48274Y-52729D01*
X48275Y-52521D01*
X48195Y-52328D01*
X48125Y-52257D01*
X48125Y-50875D01*
X48096Y-50731D01*
X48015Y-50609D01*
X48015Y-50609D01*
X47015Y-49609D01*
X46893Y-49528D01*
X46750Y-49500D01*
X46500Y-49500D01*
X45780Y-49500D01*
X46015Y-49265D01*
X46015Y-49265D01*
X46096Y-49143D01*
X46124Y-49000D01*
X46125Y-49000D01*
X46125Y-48254D01*
X46175Y-48275D01*
X46274Y-48275D01*
X46824Y-48275D01*
X46916Y-48236D01*
X46986Y-48166D01*
X47004Y-48125D01*
X47132Y-48125D01*
X47202Y-48194D01*
X47395Y-48274D01*
X47603Y-48275D01*
X47797Y-48195D01*
X47944Y-48047D01*
X48024Y-47854D01*
X48025Y-47646D01*
X47945Y-47453D01*
X47797Y-47305D01*
X47604Y-47225D01*
X47396Y-47224D01*
X47203Y-47304D01*
X47132Y-47375D01*
X47004Y-47375D01*
X46986Y-47333D01*
X46916Y-47263D01*
X46824Y-47225D01*
X46725Y-47225D01*
X46175Y-47225D01*
X46125Y-47245D01*
X46125Y-46625D01*
X46125Y-45504D01*
X46175Y-45525D01*
X46274Y-45525D01*
X46824Y-45525D01*
X46916Y-45486D01*
X46986Y-45416D01*
X47004Y-45375D01*
X47132Y-45375D01*
X47202Y-45444D01*
X47395Y-45524D01*
X47603Y-45525D01*
X47797Y-45445D01*
X47944Y-45297D01*
X48024Y-45104D01*
X48025Y-44896D01*
X47945Y-44703D01*
X47797Y-44555D01*
X47604Y-44475D01*
X47396Y-44474D01*
X47203Y-44554D01*
X47132Y-44625D01*
X47004Y-44625D01*
X46986Y-44583D01*
X46916Y-44513D01*
X46824Y-44475D01*
X46725Y-44475D01*
X46175Y-44475D01*
X46125Y-44495D01*
X46125Y-43875D01*
X46125Y-42754D01*
X46175Y-42775D01*
X46274Y-42775D01*
X46824Y-42775D01*
X46916Y-42736D01*
X46986Y-42666D01*
X47004Y-42625D01*
X47132Y-42625D01*
X47202Y-42694D01*
X47395Y-42774D01*
X47603Y-42775D01*
X47797Y-42695D01*
X47944Y-42547D01*
X48024Y-42354D01*
X48025Y-42146D01*
X47945Y-41953D01*
X47797Y-41805D01*
X47604Y-41725D01*
X47396Y-41724D01*
X47203Y-41804D01*
X47132Y-41875D01*
X47004Y-41875D01*
X46986Y-41833D01*
X46916Y-41763D01*
X46824Y-41725D01*
X46725Y-41725D01*
X46175Y-41725D01*
X46125Y-41745D01*
X46125Y-41000D01*
X46125Y-40004D01*
X46175Y-40025D01*
X46274Y-40025D01*
X46824Y-40025D01*
X46916Y-39986D01*
X46986Y-39916D01*
X47004Y-39875D01*
X47132Y-39875D01*
X47202Y-39944D01*
X47395Y-40024D01*
X47603Y-40025D01*
X47797Y-39945D01*
X47944Y-39797D01*
X48024Y-39604D01*
X48025Y-39396D01*
X47945Y-39203D01*
X47797Y-39055D01*
X47604Y-38975D01*
X47396Y-38974D01*
X47203Y-39054D01*
X47132Y-39125D01*
X47004Y-39125D01*
X46986Y-39083D01*
X46916Y-39013D01*
X46824Y-38975D01*
X46725Y-38975D01*
X46175Y-38975D01*
X46125Y-38995D01*
X46125Y-38500D01*
X46125Y-37254D01*
X46175Y-37275D01*
X46274Y-37275D01*
X46824Y-37275D01*
X46916Y-37236D01*
X46986Y-37166D01*
X47004Y-37125D01*
X47132Y-37125D01*
X47202Y-37194D01*
X47395Y-37274D01*
X47603Y-37275D01*
X47797Y-37195D01*
X47944Y-37047D01*
X48024Y-36854D01*
X48025Y-36646D01*
X47945Y-36453D01*
X47797Y-36305D01*
X47604Y-36225D01*
X47396Y-36224D01*
X47203Y-36304D01*
X47132Y-36375D01*
X47004Y-36375D01*
X46986Y-36333D01*
X46916Y-36263D01*
X46824Y-36225D01*
X46725Y-36225D01*
X46175Y-36225D01*
X46125Y-36245D01*
X46125Y-35625D01*
X46125Y-34504D01*
X46175Y-34525D01*
X46274Y-34525D01*
X46824Y-34525D01*
X46916Y-34486D01*
X46986Y-34416D01*
X47004Y-34375D01*
X47132Y-34375D01*
X47202Y-34444D01*
X47395Y-34524D01*
X47603Y-34525D01*
X47797Y-34445D01*
X47944Y-34297D01*
X48024Y-34104D01*
X48025Y-33896D01*
X47945Y-33703D01*
X47797Y-33555D01*
X47604Y-33475D01*
X47396Y-33474D01*
X47203Y-33554D01*
X47132Y-33625D01*
X47004Y-33625D01*
X46986Y-33583D01*
X46916Y-33513D01*
X46824Y-33475D01*
X46725Y-33475D01*
X46175Y-33475D01*
X46125Y-33495D01*
X46125Y-32875D01*
X46125Y-31754D01*
X46175Y-31775D01*
X46274Y-31775D01*
X46824Y-31775D01*
X46916Y-31736D01*
X46986Y-31666D01*
X47004Y-31625D01*
X47132Y-31625D01*
X47202Y-31694D01*
X47395Y-31774D01*
X47603Y-31775D01*
X47797Y-31695D01*
X47944Y-31547D01*
X48024Y-31354D01*
X48025Y-31146D01*
X47945Y-30953D01*
X47797Y-30805D01*
X47604Y-30725D01*
X47396Y-30724D01*
X47203Y-30804D01*
X47132Y-30875D01*
X47004Y-30875D01*
X46986Y-30833D01*
X46916Y-30763D01*
X46824Y-30725D01*
X46725Y-30725D01*
X46175Y-30725D01*
X46125Y-30745D01*
X46125Y-30250D01*
X46125Y-29004D01*
X46175Y-29025D01*
X46274Y-29025D01*
X46824Y-29025D01*
X46916Y-28986D01*
X46986Y-28916D01*
X47004Y-28875D01*
X47132Y-28875D01*
X47202Y-28944D01*
X47395Y-29024D01*
X47603Y-29025D01*
X47797Y-28945D01*
X47944Y-28797D01*
X48024Y-28604D01*
X48025Y-28396D01*
X47945Y-28203D01*
X47797Y-28055D01*
X47604Y-27975D01*
X47396Y-27974D01*
X47203Y-28054D01*
X47132Y-28125D01*
X47004Y-28125D01*
X46986Y-28083D01*
X46916Y-28013D01*
X46824Y-27975D01*
X46725Y-27975D01*
X46175Y-27975D01*
X46125Y-27995D01*
X46125Y-27875D01*
X46096Y-27731D01*
X46015Y-27609D01*
X45890Y-27484D01*
X45890Y-27484D01*
X45890Y-27484D01*
X45515Y-27109D01*
X45393Y-27028D01*
X45250Y-27000D01*
X41000Y-27000D01*
X40856Y-27028D01*
X40734Y-27109D01*
X39650Y-28194D01*
X39650Y-27900D01*
X39611Y-27808D01*
X39541Y-27738D01*
X39449Y-27700D01*
X39350Y-27700D01*
X39213Y-27700D01*
X39143Y-27653D01*
X39000Y-27625D01*
X38004Y-27625D01*
X37986Y-27583D01*
X37916Y-27513D01*
X37824Y-27475D01*
X37725Y-27475D01*
X37175Y-27475D01*
X37083Y-27513D01*
X37013Y-27583D01*
X36975Y-27675D01*
X36975Y-27774D01*
X36975Y-28324D01*
X37013Y-28416D01*
X37083Y-28486D01*
X37095Y-28492D01*
X37083Y-28497D01*
X37013Y-28567D01*
X36975Y-28659D01*
X36975Y-28758D01*
X36975Y-29308D01*
X37011Y-29397D01*
X36981Y-29403D01*
X36859Y-29484D01*
X36484Y-29859D01*
X36403Y-29981D01*
X36375Y-30125D01*
X36375Y-30463D01*
X36370Y-30453D01*
X36300Y-30382D01*
X36300Y-30300D01*
X36271Y-30156D01*
X36190Y-30035D01*
X35765Y-29609D01*
X35643Y-29528D01*
X35500Y-29500D01*
X35264Y-29500D01*
X35434Y-29429D01*
X35531Y-29333D01*
X35627Y-29429D01*
X35820Y-29509D01*
X36029Y-29509D01*
X36222Y-29429D01*
X36370Y-29282D01*
X36450Y-29089D01*
X36450Y-28880D01*
X36370Y-28687D01*
X36300Y-28616D01*
X36300Y-28367D01*
X36370Y-28297D01*
X36450Y-28104D01*
X36450Y-27896D01*
X36370Y-27703D01*
X36300Y-27632D01*
X36300Y-27550D01*
X36271Y-27406D01*
X36190Y-27285D01*
X35765Y-26859D01*
X35643Y-26778D01*
X35500Y-26750D01*
X33500Y-26750D01*
X33356Y-26778D01*
X33234Y-26859D01*
X32175Y-27919D01*
X32175Y-25167D01*
X32015Y-24780D01*
X31720Y-24485D01*
X31334Y-24325D01*
X30917Y-24324D01*
X30530Y-24484D01*
X30235Y-24779D01*
X30075Y-25165D01*
X30074Y-25582D01*
X30234Y-25969D01*
X30529Y-26264D01*
X30915Y-26424D01*
X31332Y-26425D01*
X31719Y-26265D01*
X32014Y-25970D01*
X32174Y-25584D01*
X32175Y-25167D01*
X32175Y-27919D01*
X32119Y-27975D01*
X31675Y-27975D01*
X31583Y-28013D01*
X31513Y-28083D01*
X31495Y-28125D01*
X31367Y-28125D01*
X31297Y-28055D01*
X31104Y-27975D01*
X30896Y-27974D01*
X30703Y-28054D01*
X30555Y-28202D01*
X30475Y-28395D01*
X30474Y-28603D01*
X30554Y-28797D01*
X30702Y-28944D01*
X30895Y-29024D01*
X31103Y-29025D01*
X31297Y-28945D01*
X31367Y-28875D01*
X31495Y-28875D01*
X31513Y-28916D01*
X31583Y-28986D01*
X31675Y-29025D01*
X31774Y-29025D01*
X32324Y-29025D01*
X32416Y-28986D01*
X32486Y-28916D01*
X32525Y-28824D01*
X32525Y-28725D01*
X32525Y-28630D01*
X33655Y-27500D01*
X33770Y-27500D01*
X33695Y-27574D01*
X33775Y-27654D01*
X33660Y-27668D01*
X33586Y-27958D01*
X33628Y-28253D01*
X33660Y-28331D01*
X33806Y-28349D01*
X34155Y-28000D01*
X34132Y-27976D01*
X34327Y-27782D01*
X34350Y-27805D01*
X34373Y-27782D01*
X34568Y-27976D01*
X34544Y-28000D01*
X34568Y-28023D01*
X34373Y-28217D01*
X34350Y-28194D01*
X34313Y-28231D01*
X34155Y-28254D01*
X34096Y-28262D01*
X34019Y-28294D01*
X34001Y-28440D01*
X34052Y-28492D01*
X34001Y-28543D01*
X34019Y-28689D01*
X34308Y-28763D01*
X34322Y-28761D01*
X34350Y-28789D01*
X34373Y-28766D01*
X34568Y-28960D01*
X34544Y-28984D01*
X34568Y-29007D01*
X34373Y-29202D01*
X34350Y-29178D01*
X34327Y-29202D01*
X34155Y-29030D01*
X34132Y-29007D01*
X34155Y-28984D01*
X33806Y-28635D01*
X33660Y-28653D01*
X33586Y-28942D01*
X33628Y-29237D01*
X33660Y-29315D01*
X33775Y-29329D01*
X33695Y-29409D01*
X33785Y-29500D01*
X33500Y-29500D01*
X33356Y-29528D01*
X33234Y-29609D01*
X32119Y-30725D01*
X31675Y-30725D01*
X31583Y-30763D01*
X31513Y-30833D01*
X31495Y-30875D01*
X31367Y-30875D01*
X31297Y-30805D01*
X31104Y-30725D01*
X30896Y-30724D01*
X30703Y-30804D01*
X30555Y-30952D01*
X30475Y-31145D01*
X30474Y-31353D01*
X30554Y-31547D01*
X30702Y-31694D01*
X30895Y-31774D01*
X31103Y-31775D01*
X31297Y-31695D01*
X31367Y-31625D01*
X31495Y-31625D01*
X31513Y-31666D01*
X31583Y-31736D01*
X31675Y-31775D01*
X31774Y-31775D01*
X32324Y-31775D01*
X32416Y-31736D01*
X32486Y-31666D01*
X32525Y-31574D01*
X32525Y-31475D01*
X32525Y-31380D01*
X33655Y-30250D01*
X33770Y-30250D01*
X33695Y-30324D01*
X33775Y-30404D01*
X33660Y-30418D01*
X33586Y-30708D01*
X33628Y-31003D01*
X33660Y-31081D01*
X33806Y-31099D01*
X34155Y-30750D01*
X34132Y-30726D01*
X34327Y-30532D01*
X34350Y-30555D01*
X34373Y-30532D01*
X34568Y-30726D01*
X34544Y-30750D01*
X34568Y-30773D01*
X34373Y-30967D01*
X34350Y-30944D01*
X34313Y-30981D01*
X34155Y-31004D01*
X34096Y-31012D01*
X34019Y-31044D01*
X34001Y-31190D01*
X34052Y-31242D01*
X34001Y-31293D01*
X34019Y-31439D01*
X34308Y-31513D01*
X34322Y-31511D01*
X34350Y-31539D01*
X34373Y-31516D01*
X34568Y-31710D01*
X34544Y-31734D01*
X34568Y-31757D01*
X34373Y-31952D01*
X34350Y-31928D01*
X34327Y-31952D01*
X34155Y-31780D01*
X34132Y-31757D01*
X34155Y-31734D01*
X33806Y-31385D01*
X33660Y-31403D01*
X33586Y-31692D01*
X33628Y-31987D01*
X33660Y-32065D01*
X33775Y-32079D01*
X33695Y-32159D01*
X33785Y-32250D01*
X33500Y-32250D01*
X33356Y-32278D01*
X33234Y-32359D01*
X32119Y-33475D01*
X31675Y-33475D01*
X31583Y-33513D01*
X31513Y-33583D01*
X31495Y-33625D01*
X31367Y-33625D01*
X31297Y-33555D01*
X31104Y-33475D01*
X30896Y-33474D01*
X30703Y-33554D01*
X30555Y-33702D01*
X30475Y-33895D01*
X30474Y-34103D01*
X30554Y-34297D01*
X30702Y-34444D01*
X30895Y-34524D01*
X31103Y-34525D01*
X31297Y-34445D01*
X31367Y-34375D01*
X31495Y-34375D01*
X31513Y-34416D01*
X31583Y-34486D01*
X31675Y-34525D01*
X31774Y-34525D01*
X32324Y-34525D01*
X32416Y-34486D01*
X32486Y-34416D01*
X32525Y-34324D01*
X32525Y-34225D01*
X32525Y-34130D01*
X33655Y-33000D01*
X33770Y-33000D01*
X33695Y-33074D01*
X33775Y-33154D01*
X33660Y-33168D01*
X33586Y-33458D01*
X33628Y-33753D01*
X33660Y-33831D01*
X33806Y-33849D01*
X34155Y-33500D01*
X34132Y-33476D01*
X34327Y-33282D01*
X34350Y-33305D01*
X34373Y-33282D01*
X34568Y-33476D01*
X34544Y-33500D01*
X34568Y-33523D01*
X34373Y-33717D01*
X34350Y-33694D01*
X34313Y-33731D01*
X34155Y-33754D01*
X34096Y-33762D01*
X34019Y-33794D01*
X34001Y-33940D01*
X34052Y-33992D01*
X34001Y-34043D01*
X34019Y-34189D01*
X34308Y-34263D01*
X34322Y-34261D01*
X34350Y-34289D01*
X34373Y-34266D01*
X34568Y-34460D01*
X34544Y-34484D01*
X34568Y-34507D01*
X34373Y-34702D01*
X34350Y-34678D01*
X34327Y-34702D01*
X34155Y-34530D01*
X34132Y-34507D01*
X34155Y-34484D01*
X33806Y-34135D01*
X33660Y-34153D01*
X33586Y-34442D01*
X33628Y-34737D01*
X33660Y-34815D01*
X33775Y-34829D01*
X33695Y-34909D01*
X33785Y-35000D01*
X33500Y-35000D01*
X33356Y-35028D01*
X33234Y-35109D01*
X32119Y-36225D01*
X31675Y-36225D01*
X31583Y-36263D01*
X31513Y-36333D01*
X31495Y-36375D01*
X31367Y-36375D01*
X31297Y-36305D01*
X31104Y-36225D01*
X30896Y-36224D01*
X30703Y-36304D01*
X30555Y-36452D01*
X30475Y-36645D01*
X30474Y-36853D01*
X30554Y-37047D01*
X30702Y-37194D01*
X30895Y-37274D01*
X31103Y-37275D01*
X31297Y-37195D01*
X31367Y-37125D01*
X31495Y-37125D01*
X31513Y-37166D01*
X31583Y-37236D01*
X31675Y-37275D01*
X31774Y-37275D01*
X32324Y-37275D01*
X32416Y-37236D01*
X32486Y-37166D01*
X32525Y-37074D01*
X32525Y-36975D01*
X32525Y-36880D01*
X33655Y-35750D01*
X33770Y-35750D01*
X33695Y-35824D01*
X33775Y-35904D01*
X33660Y-35918D01*
X33586Y-36208D01*
X33628Y-36503D01*
X33660Y-36581D01*
X33806Y-36599D01*
X34155Y-36250D01*
X34132Y-36226D01*
X34327Y-36032D01*
X34350Y-36055D01*
X34373Y-36032D01*
X34568Y-36226D01*
X34544Y-36250D01*
X34568Y-36273D01*
X34373Y-36467D01*
X34350Y-36444D01*
X34313Y-36481D01*
X34155Y-36504D01*
X34096Y-36512D01*
X34019Y-36544D01*
X34001Y-36690D01*
X34052Y-36742D01*
X34001Y-36793D01*
X34019Y-36939D01*
X34308Y-37013D01*
X34322Y-37011D01*
X34350Y-37039D01*
X34373Y-37016D01*
X34568Y-37210D01*
X34544Y-37234D01*
X34568Y-37257D01*
X34373Y-37452D01*
X34350Y-37428D01*
X34327Y-37452D01*
X34155Y-37280D01*
X34132Y-37257D01*
X34155Y-37234D01*
X33806Y-36885D01*
X33660Y-36903D01*
X33586Y-37192D01*
X33628Y-37487D01*
X33660Y-37565D01*
X33775Y-37579D01*
X33695Y-37659D01*
X33785Y-37750D01*
X33500Y-37750D01*
X33356Y-37778D01*
X33234Y-37859D01*
X32119Y-38975D01*
X31675Y-38975D01*
X31583Y-39013D01*
X31513Y-39083D01*
X31495Y-39125D01*
X31367Y-39125D01*
X31297Y-39055D01*
X31104Y-38975D01*
X30896Y-38974D01*
X30703Y-39054D01*
X30555Y-39202D01*
X30475Y-39395D01*
X30474Y-39603D01*
X30554Y-39797D01*
X30702Y-39944D01*
X30895Y-40024D01*
X31103Y-40025D01*
X31297Y-39945D01*
X31367Y-39875D01*
X31495Y-39875D01*
X31513Y-39916D01*
X31583Y-39986D01*
X31675Y-40025D01*
X31774Y-40025D01*
X32324Y-40025D01*
X32416Y-39986D01*
X32486Y-39916D01*
X32525Y-39824D01*
X32525Y-39725D01*
X32525Y-39630D01*
X33655Y-38500D01*
X33770Y-38500D01*
X33695Y-38574D01*
X33775Y-38654D01*
X33660Y-38668D01*
X33586Y-38958D01*
X33628Y-39253D01*
X33660Y-39331D01*
X33806Y-39349D01*
X34155Y-39000D01*
X34132Y-38976D01*
X34327Y-38782D01*
X34350Y-38805D01*
X34373Y-38782D01*
X34568Y-38976D01*
X34544Y-39000D01*
X34568Y-39023D01*
X34373Y-39217D01*
X34350Y-39194D01*
X34313Y-39231D01*
X34155Y-39254D01*
X34096Y-39262D01*
X34019Y-39294D01*
X34001Y-39440D01*
X34052Y-39492D01*
X34001Y-39543D01*
X34019Y-39689D01*
X34308Y-39763D01*
X34322Y-39761D01*
X34350Y-39789D01*
X34373Y-39766D01*
X34568Y-39960D01*
X34544Y-39984D01*
X34568Y-40007D01*
X34373Y-40202D01*
X34350Y-40178D01*
X34327Y-40202D01*
X34155Y-40030D01*
X34132Y-40007D01*
X34155Y-39984D01*
X33806Y-39635D01*
X33660Y-39653D01*
X33586Y-39942D01*
X33628Y-40237D01*
X33660Y-40315D01*
X33775Y-40329D01*
X33695Y-40409D01*
X33785Y-40500D01*
X33500Y-40500D01*
X33356Y-40528D01*
X33234Y-40609D01*
X32119Y-41725D01*
X31675Y-41725D01*
X31583Y-41763D01*
X31513Y-41833D01*
X31495Y-41875D01*
X31367Y-41875D01*
X31297Y-41805D01*
X31104Y-41725D01*
X30896Y-41724D01*
X30703Y-41804D01*
X30555Y-41952D01*
X30475Y-42145D01*
X30474Y-42353D01*
X30554Y-42547D01*
X30702Y-42694D01*
X30895Y-42774D01*
X31103Y-42775D01*
X31297Y-42695D01*
X31367Y-42625D01*
X31495Y-42625D01*
X31513Y-42666D01*
X31583Y-42736D01*
X31675Y-42775D01*
X31774Y-42775D01*
X32324Y-42775D01*
X32416Y-42736D01*
X32486Y-42666D01*
X32525Y-42574D01*
X32525Y-42475D01*
X32525Y-42380D01*
X33655Y-41250D01*
X33770Y-41250D01*
X33695Y-41324D01*
X33775Y-41404D01*
X33660Y-41418D01*
X33586Y-41708D01*
X33628Y-42003D01*
X33660Y-42081D01*
X33806Y-42099D01*
X34155Y-41750D01*
X34132Y-41726D01*
X34327Y-41532D01*
X34350Y-41555D01*
X34373Y-41532D01*
X34568Y-41726D01*
X34544Y-41750D01*
X34568Y-41773D01*
X34373Y-41967D01*
X34350Y-41944D01*
X34313Y-41981D01*
X34155Y-42004D01*
X34096Y-42012D01*
X34019Y-42044D01*
X34001Y-42190D01*
X34052Y-42242D01*
X34001Y-42293D01*
X34019Y-42439D01*
X34308Y-42513D01*
X34322Y-42511D01*
X34350Y-42539D01*
X34373Y-42516D01*
X34568Y-42710D01*
X34544Y-42734D01*
X34568Y-42757D01*
X34373Y-42952D01*
X34350Y-42928D01*
X34327Y-42952D01*
X34155Y-42780D01*
X34132Y-42757D01*
X34155Y-42734D01*
X33806Y-42385D01*
X33660Y-42403D01*
X33586Y-42692D01*
X33628Y-42987D01*
X33660Y-43065D01*
X33775Y-43079D01*
X33695Y-43159D01*
X33785Y-43250D01*
X33500Y-43250D01*
X33356Y-43278D01*
X33234Y-43359D01*
X32119Y-44475D01*
X31675Y-44475D01*
X31583Y-44513D01*
X31513Y-44583D01*
X31495Y-44625D01*
X31367Y-44625D01*
X31297Y-44555D01*
X31104Y-44475D01*
X30896Y-44474D01*
X30703Y-44554D01*
X30555Y-44702D01*
X30475Y-44895D01*
X30474Y-45103D01*
X30554Y-45297D01*
X30702Y-45444D01*
X30895Y-45524D01*
X31103Y-45525D01*
X31297Y-45445D01*
X31367Y-45375D01*
X31495Y-45375D01*
X31513Y-45416D01*
X31583Y-45486D01*
X31675Y-45525D01*
X31774Y-45525D01*
X32324Y-45525D01*
X32416Y-45486D01*
X32486Y-45416D01*
X32525Y-45324D01*
X32525Y-45225D01*
X32525Y-45130D01*
X33655Y-44000D01*
X33770Y-44000D01*
X33695Y-44074D01*
X33775Y-44154D01*
X33660Y-44168D01*
X33586Y-44458D01*
X33628Y-44753D01*
X33660Y-44831D01*
X33806Y-44849D01*
X34155Y-44500D01*
X34132Y-44476D01*
X34327Y-44282D01*
X34350Y-44305D01*
X34373Y-44282D01*
X34568Y-44476D01*
X34544Y-44500D01*
X34568Y-44523D01*
X34373Y-44717D01*
X34350Y-44694D01*
X34313Y-44731D01*
X34155Y-44754D01*
X34096Y-44762D01*
X34019Y-44794D01*
X34001Y-44940D01*
X34052Y-44992D01*
X34001Y-45043D01*
X34019Y-45189D01*
X34308Y-45263D01*
X34322Y-45261D01*
X34350Y-45289D01*
X34373Y-45266D01*
X34568Y-45460D01*
X34544Y-45484D01*
X34568Y-45507D01*
X34373Y-45702D01*
X34350Y-45678D01*
X34327Y-45702D01*
X34155Y-45530D01*
X34132Y-45507D01*
X34155Y-45484D01*
X33806Y-45135D01*
X33660Y-45153D01*
X33586Y-45442D01*
X33628Y-45737D01*
X33660Y-45815D01*
X33775Y-45829D01*
X33695Y-45909D01*
X33785Y-46000D01*
X33500Y-46000D01*
X33356Y-46028D01*
X33234Y-46109D01*
X32119Y-47225D01*
X31675Y-47225D01*
X31583Y-47263D01*
X31513Y-47333D01*
X31495Y-47375D01*
X31367Y-47375D01*
X31297Y-47305D01*
X31104Y-47225D01*
X30896Y-47224D01*
X30703Y-47304D01*
X30555Y-47452D01*
X30475Y-47645D01*
X30474Y-47853D01*
X30554Y-48047D01*
X30702Y-48194D01*
X30895Y-48274D01*
X31103Y-48275D01*
X31297Y-48195D01*
X31367Y-48125D01*
X31495Y-48125D01*
X31513Y-48166D01*
X31583Y-48236D01*
X31675Y-48275D01*
X31774Y-48275D01*
X32324Y-48275D01*
X32416Y-48236D01*
X32486Y-48166D01*
X32525Y-48074D01*
X32525Y-47975D01*
X32525Y-47880D01*
X33655Y-46750D01*
X33770Y-46750D01*
X33695Y-46824D01*
X33775Y-46904D01*
X33660Y-46918D01*
X33586Y-47208D01*
X33628Y-47503D01*
X33660Y-47581D01*
X33806Y-47599D01*
X34155Y-47250D01*
X34132Y-47226D01*
X34327Y-47032D01*
X34350Y-47055D01*
X34373Y-47032D01*
X34568Y-47226D01*
X34544Y-47250D01*
X34568Y-47273D01*
X34373Y-47467D01*
X34350Y-47444D01*
X34313Y-47481D01*
X34155Y-47504D01*
X34096Y-47512D01*
X34019Y-47544D01*
X34001Y-47690D01*
X34052Y-47742D01*
X34001Y-47793D01*
X34019Y-47939D01*
X34308Y-48013D01*
X34322Y-48011D01*
X34350Y-48039D01*
X34373Y-48016D01*
X34568Y-48210D01*
X34544Y-48234D01*
X34612Y-48302D01*
X34612Y-48338D01*
X34692Y-48531D01*
X34840Y-48679D01*
X35032Y-48759D01*
X35241Y-48759D01*
X35434Y-48679D01*
X35531Y-48583D01*
X35627Y-48679D01*
X35820Y-48759D01*
X36029Y-48759D01*
X36222Y-48679D01*
X36370Y-48532D01*
X36375Y-48520D01*
X36375Y-48875D01*
X34687Y-48875D01*
X34699Y-48777D01*
X34350Y-48428D01*
X34155Y-48623D01*
X34155Y-48234D01*
X33806Y-47885D01*
X33660Y-47903D01*
X33586Y-48192D01*
X33628Y-48487D01*
X33660Y-48565D01*
X33806Y-48583D01*
X34155Y-48234D01*
X34155Y-48623D01*
X34001Y-48777D01*
X34013Y-48875D01*
X31750Y-48875D01*
X31606Y-48903D01*
X31484Y-48984D01*
X29984Y-50484D01*
X29903Y-50606D01*
X29875Y-50750D01*
X29875Y-54875D01*
X29903Y-55018D01*
X29984Y-55140D01*
X31370Y-56525D01*
X31100Y-57175D01*
X31099Y-58070D01*
X31441Y-58897D01*
X32073Y-59531D01*
X32900Y-59874D01*
X33795Y-59875D01*
X34622Y-59533D01*
X35256Y-58901D01*
X35599Y-58074D01*
X35599Y-57975D01*
X37605Y-57975D01*
X38395Y-58764D01*
X38395Y-59395D01*
X38285Y-59286D01*
X38111Y-59213D01*
X37921Y-59213D01*
X37904Y-59213D01*
X37785Y-59332D01*
X37785Y-60018D01*
X37793Y-60018D01*
X37793Y-60343D01*
X37785Y-60343D01*
X37785Y-61029D01*
X37904Y-61148D01*
X37921Y-61148D01*
X38082Y-61148D01*
X38081Y-61249D01*
X38146Y-61406D01*
X38266Y-61526D01*
X38423Y-61591D01*
X38593Y-61592D01*
X38750Y-61527D01*
X38870Y-61407D01*
X38935Y-61250D01*
X38935Y-61180D01*
X39167Y-61412D01*
X39281Y-61488D01*
X39415Y-61515D01*
X39987Y-61515D01*
X39998Y-61526D01*
X40155Y-61591D01*
X40325Y-61592D01*
X40482Y-61527D01*
X40602Y-61407D01*
X40667Y-61250D01*
X40668Y-61080D01*
X40603Y-60923D01*
X40517Y-60837D01*
X40525Y-60818D01*
X40591Y-60884D01*
X40683Y-60923D01*
X40783Y-60923D01*
X41570Y-60923D01*
X41662Y-60884D01*
X41732Y-60814D01*
X41770Y-60722D01*
X41770Y-60623D01*
X41770Y-59639D01*
X41732Y-59547D01*
X41662Y-59477D01*
X41570Y-59439D01*
X41470Y-59439D01*
X40683Y-59439D01*
X40591Y-59477D01*
X40548Y-59520D01*
X40506Y-59419D01*
X40372Y-59286D01*
X40198Y-59213D01*
X40173Y-59213D01*
X40112Y-59274D01*
X40112Y-53256D01*
X40112Y-52762D01*
X40112Y-52487D01*
X40112Y-51993D01*
X39993Y-51874D01*
X39880Y-51874D01*
X39705Y-51947D01*
X39572Y-52080D01*
X39499Y-52255D01*
X39499Y-52368D01*
X39618Y-52487D01*
X40112Y-52487D01*
X40112Y-52762D01*
X39618Y-52762D01*
X39499Y-52881D01*
X39499Y-52994D01*
X39572Y-53169D01*
X39705Y-53302D01*
X39880Y-53375D01*
X39993Y-53375D01*
X40112Y-53256D01*
X40112Y-59274D01*
X40079Y-59307D01*
X40057Y-59286D01*
X39883Y-59213D01*
X39858Y-59213D01*
X39847Y-59224D01*
X39836Y-59213D01*
X39811Y-59213D01*
X39637Y-59286D01*
X39615Y-59307D01*
X39521Y-59213D01*
X39496Y-59213D01*
X39322Y-59286D01*
X39188Y-59419D01*
X39180Y-59439D01*
X39108Y-59439D01*
X39095Y-59439D01*
X39095Y-58620D01*
X39068Y-58486D01*
X39068Y-58486D01*
X38992Y-58372D01*
X37997Y-57377D01*
X37883Y-57301D01*
X37750Y-57275D01*
X37362Y-57275D01*
X37362Y-54256D01*
X37362Y-53762D01*
X36868Y-53762D01*
X36749Y-53881D01*
X36749Y-53994D01*
X36822Y-54169D01*
X36955Y-54302D01*
X37130Y-54375D01*
X37243Y-54375D01*
X37362Y-54256D01*
X37362Y-57275D01*
X35600Y-57275D01*
X35600Y-57179D01*
X35487Y-56906D01*
X35487Y-53256D01*
X35487Y-52762D01*
X35487Y-52487D01*
X35487Y-51993D01*
X35368Y-51874D01*
X35255Y-51874D01*
X35080Y-51947D01*
X34947Y-52080D01*
X34874Y-52255D01*
X34874Y-52368D01*
X34993Y-52487D01*
X35487Y-52487D01*
X35487Y-52762D01*
X34993Y-52762D01*
X34874Y-52881D01*
X34874Y-52994D01*
X34947Y-53169D01*
X35080Y-53302D01*
X35255Y-53375D01*
X35368Y-53375D01*
X35487Y-53256D01*
X35487Y-56906D01*
X35258Y-56352D01*
X34626Y-55718D01*
X33799Y-55375D01*
X32904Y-55374D01*
X32737Y-55443D01*
X32737Y-54256D01*
X32737Y-53762D01*
X32243Y-53762D01*
X32124Y-53881D01*
X32124Y-53994D01*
X32197Y-54169D01*
X32330Y-54302D01*
X32505Y-54375D01*
X32618Y-54375D01*
X32737Y-54256D01*
X32737Y-55443D01*
X32077Y-55716D01*
X31849Y-55943D01*
X30625Y-54719D01*
X30625Y-53372D01*
X30630Y-53375D01*
X30743Y-53375D01*
X30862Y-53256D01*
X30862Y-52762D01*
X30829Y-52762D01*
X30829Y-52487D01*
X30862Y-52487D01*
X30862Y-51993D01*
X30743Y-51874D01*
X30630Y-51874D01*
X30625Y-51877D01*
X30625Y-50905D01*
X31905Y-49625D01*
X32719Y-49625D01*
X31734Y-50609D01*
X31653Y-50731D01*
X31625Y-50875D01*
X31625Y-51257D01*
X31555Y-51327D01*
X31475Y-51520D01*
X31474Y-51728D01*
X31554Y-51922D01*
X31702Y-52069D01*
X31835Y-52125D01*
X31716Y-52174D01*
X31677Y-52080D01*
X31544Y-51947D01*
X31369Y-51874D01*
X31256Y-51874D01*
X31137Y-51993D01*
X31137Y-52487D01*
X31170Y-52487D01*
X31170Y-52762D01*
X31137Y-52762D01*
X31137Y-53256D01*
X31256Y-53375D01*
X31369Y-53375D01*
X31544Y-53302D01*
X31677Y-53169D01*
X31716Y-53075D01*
X31895Y-53149D01*
X32103Y-53150D01*
X32181Y-53117D01*
X32124Y-53255D01*
X32124Y-53368D01*
X32243Y-53487D01*
X32737Y-53487D01*
X32737Y-52993D01*
X32618Y-52874D01*
X32505Y-52874D01*
X32456Y-52895D01*
X32524Y-52729D01*
X32525Y-52521D01*
X32445Y-52328D01*
X32297Y-52180D01*
X32164Y-52124D01*
X32297Y-52070D01*
X32444Y-51922D01*
X32524Y-51729D01*
X32525Y-51521D01*
X32445Y-51328D01*
X32375Y-51257D01*
X32375Y-51030D01*
X33155Y-50250D01*
X34719Y-50250D01*
X33609Y-51359D01*
X33528Y-51481D01*
X33500Y-51625D01*
X33500Y-52257D01*
X33430Y-52327D01*
X33350Y-52520D01*
X33349Y-52728D01*
X33429Y-52922D01*
X33577Y-53069D01*
X33710Y-53125D01*
X33591Y-53174D01*
X33552Y-53080D01*
X33419Y-52947D01*
X33244Y-52874D01*
X33131Y-52874D01*
X33012Y-52993D01*
X33012Y-53487D01*
X33045Y-53487D01*
X33045Y-53762D01*
X33012Y-53762D01*
X33012Y-54256D01*
X33131Y-54375D01*
X33244Y-54375D01*
X33419Y-54302D01*
X33552Y-54169D01*
X33591Y-54075D01*
X33770Y-54149D01*
X33978Y-54150D01*
X34172Y-54070D01*
X34319Y-53922D01*
X34399Y-53729D01*
X34400Y-53521D01*
X34320Y-53328D01*
X34172Y-53180D01*
X34039Y-53124D01*
X34172Y-53070D01*
X34319Y-52922D01*
X34399Y-52729D01*
X34400Y-52521D01*
X34320Y-52328D01*
X34250Y-52257D01*
X34250Y-51780D01*
X35280Y-50750D01*
X36969Y-50750D01*
X36619Y-51099D01*
X36521Y-51099D01*
X36328Y-51179D01*
X36180Y-51327D01*
X36100Y-51520D01*
X36099Y-51728D01*
X36179Y-51922D01*
X36327Y-52069D01*
X36460Y-52125D01*
X36341Y-52174D01*
X36302Y-52080D01*
X36169Y-51947D01*
X35994Y-51874D01*
X35881Y-51874D01*
X35762Y-51993D01*
X35762Y-52487D01*
X35795Y-52487D01*
X35795Y-52762D01*
X35762Y-52762D01*
X35762Y-53256D01*
X35881Y-53375D01*
X35994Y-53375D01*
X36169Y-53302D01*
X36302Y-53169D01*
X36341Y-53075D01*
X36520Y-53149D01*
X36728Y-53150D01*
X36806Y-53117D01*
X36749Y-53255D01*
X36749Y-53368D01*
X36868Y-53487D01*
X37362Y-53487D01*
X37362Y-52993D01*
X37243Y-52874D01*
X37130Y-52874D01*
X37081Y-52895D01*
X37149Y-52729D01*
X37150Y-52521D01*
X37070Y-52328D01*
X36922Y-52180D01*
X36789Y-52124D01*
X36922Y-52070D01*
X37069Y-51922D01*
X37149Y-51729D01*
X37149Y-51630D01*
X37530Y-51250D01*
X38969Y-51250D01*
X38359Y-51859D01*
X38234Y-51984D01*
X38153Y-52106D01*
X38125Y-52250D01*
X38125Y-52257D01*
X38055Y-52327D01*
X37975Y-52520D01*
X37974Y-52728D01*
X38054Y-52922D01*
X38202Y-53069D01*
X38335Y-53125D01*
X38216Y-53174D01*
X38177Y-53080D01*
X38044Y-52947D01*
X37869Y-52874D01*
X37756Y-52874D01*
X37637Y-52993D01*
X37637Y-53487D01*
X37670Y-53487D01*
X37670Y-53762D01*
X37637Y-53762D01*
X37637Y-54256D01*
X37756Y-54375D01*
X37869Y-54375D01*
X38044Y-54302D01*
X38177Y-54169D01*
X38216Y-54075D01*
X38395Y-54149D01*
X38603Y-54150D01*
X38797Y-54070D01*
X38944Y-53922D01*
X39024Y-53729D01*
X39025Y-53521D01*
X38945Y-53328D01*
X38797Y-53180D01*
X38664Y-53124D01*
X38797Y-53070D01*
X38944Y-52922D01*
X39024Y-52729D01*
X39025Y-52521D01*
X38947Y-52332D01*
X40898Y-50381D01*
X40875Y-50500D01*
X40875Y-51257D01*
X40805Y-51327D01*
X40725Y-51520D01*
X40724Y-51728D01*
X40804Y-51922D01*
X40952Y-52069D01*
X41085Y-52125D01*
X40966Y-52174D01*
X40927Y-52080D01*
X40794Y-51947D01*
X40619Y-51874D01*
X40506Y-51874D01*
X40387Y-51993D01*
X40387Y-52487D01*
X40420Y-52487D01*
X40420Y-52762D01*
X40387Y-52762D01*
X40387Y-53256D01*
X40506Y-53375D01*
X40619Y-53375D01*
X40794Y-53302D01*
X40927Y-53169D01*
X40966Y-53075D01*
X41145Y-53149D01*
X41353Y-53150D01*
X41431Y-53117D01*
X41374Y-53255D01*
X41374Y-53368D01*
X41493Y-53487D01*
X41987Y-53487D01*
X41987Y-52993D01*
X41868Y-52874D01*
X41755Y-52874D01*
X41706Y-52895D01*
X41774Y-52729D01*
X41775Y-52521D01*
X41695Y-52328D01*
X41547Y-52180D01*
X41414Y-52124D01*
X41547Y-52070D01*
X41694Y-51922D01*
X41774Y-51729D01*
X41775Y-51521D01*
X41695Y-51328D01*
X41625Y-51257D01*
X41625Y-50655D01*
X41765Y-50515D01*
X42250Y-50030D01*
X42250Y-51125D01*
X42250Y-52125D01*
X42278Y-52268D01*
X42359Y-52390D01*
X42599Y-52630D01*
X42599Y-52728D01*
X42679Y-52922D01*
X42827Y-53069D01*
X42960Y-53125D01*
X42841Y-53174D01*
X42802Y-53080D01*
X42669Y-52947D01*
X42494Y-52874D01*
X42381Y-52874D01*
X42262Y-52993D01*
X42262Y-53487D01*
X42295Y-53487D01*
X42295Y-53762D01*
X42262Y-53762D01*
X42262Y-54256D01*
X42381Y-54375D01*
X42494Y-54375D01*
X42669Y-54302D01*
X42802Y-54169D01*
X42841Y-54075D01*
X43020Y-54149D01*
X43228Y-54150D01*
X43422Y-54070D01*
X43569Y-53922D01*
X43649Y-53729D01*
X43650Y-53521D01*
X43570Y-53328D01*
X43422Y-53180D01*
X43289Y-53124D01*
X43422Y-53070D01*
X43569Y-52922D01*
X43649Y-52729D01*
X43650Y-52521D01*
X43570Y-52328D01*
X43422Y-52180D01*
X43229Y-52100D01*
X43130Y-52100D01*
X43000Y-51969D01*
X43000Y-51125D01*
X43000Y-49905D01*
X43984Y-50890D01*
X44859Y-51765D01*
X44981Y-51846D01*
X45125Y-51875D01*
X45131Y-51875D01*
X45012Y-51993D01*
X45012Y-52487D01*
X45045Y-52487D01*
X45045Y-52762D01*
X45012Y-52762D01*
X45012Y-53256D01*
X45131Y-53375D01*
X45244Y-53375D01*
X45419Y-53302D01*
X45552Y-53169D01*
X45591Y-53075D01*
X45770Y-53149D01*
X45978Y-53150D01*
X46056Y-53117D01*
X45999Y-53255D01*
X45999Y-53368D01*
X46118Y-53487D01*
X46612Y-53487D01*
X46612Y-52993D01*
X46493Y-52874D01*
X46380Y-52874D01*
X46331Y-52895D01*
X46399Y-52729D01*
X46400Y-52521D01*
X46320Y-52328D01*
X46172Y-52180D01*
X46039Y-52124D01*
X46172Y-52070D01*
X46319Y-51922D01*
X46399Y-51729D01*
X46400Y-51521D01*
X46320Y-51328D01*
X46172Y-51180D01*
X45979Y-51100D01*
X45771Y-51099D01*
X45710Y-51125D01*
X45280Y-51125D01*
X44515Y-50359D01*
X44405Y-50250D01*
X46500Y-50250D01*
X46594Y-50250D01*
X47375Y-51030D01*
X47375Y-52257D01*
X47305Y-52327D01*
X47225Y-52520D01*
X47224Y-52728D01*
X47304Y-52922D01*
X47452Y-53069D01*
X47585Y-53125D01*
X47466Y-53174D01*
X47427Y-53080D01*
X47294Y-52947D01*
X47119Y-52874D01*
X47006Y-52874D01*
X46887Y-52993D01*
X46887Y-53487D01*
X46920Y-53487D01*
X46920Y-53762D01*
X46887Y-53762D01*
X46887Y-54256D01*
X47006Y-54375D01*
X47119Y-54375D01*
X47294Y-54302D01*
X47427Y-54169D01*
X47466Y-54075D01*
X47645Y-54149D01*
X47853Y-54150D01*
X48047Y-54070D01*
X48194Y-53922D01*
X48274Y-53729D01*
X48275Y-53521D01*
X48275Y-60803D01*
X48265Y-60780D01*
X47970Y-60485D01*
X47636Y-60346D01*
X47636Y-58054D01*
X47612Y-57070D01*
X47283Y-56276D01*
X46961Y-56043D01*
X46731Y-56273D01*
X46731Y-55813D01*
X46612Y-55648D01*
X46612Y-54256D01*
X46612Y-53762D01*
X46118Y-53762D01*
X45999Y-53881D01*
X45999Y-53994D01*
X46072Y-54169D01*
X46205Y-54302D01*
X46380Y-54375D01*
X46493Y-54375D01*
X46612Y-54256D01*
X46612Y-55648D01*
X46498Y-55491D01*
X45579Y-55138D01*
X44737Y-55159D01*
X44737Y-53256D01*
X44737Y-52762D01*
X44737Y-52487D01*
X44737Y-51993D01*
X44618Y-51874D01*
X44505Y-51874D01*
X44330Y-51947D01*
X44197Y-52080D01*
X44124Y-52255D01*
X44124Y-52368D01*
X44243Y-52487D01*
X44737Y-52487D01*
X44737Y-52762D01*
X44243Y-52762D01*
X44124Y-52881D01*
X44124Y-52994D01*
X44197Y-53169D01*
X44330Y-53302D01*
X44505Y-53375D01*
X44618Y-53375D01*
X44737Y-53256D01*
X44737Y-55159D01*
X44595Y-55162D01*
X43801Y-55491D01*
X43568Y-55813D01*
X45150Y-57395D01*
X46731Y-55813D01*
X46731Y-56273D01*
X45379Y-57625D01*
X46961Y-59206D01*
X47283Y-58973D01*
X47636Y-58054D01*
X47636Y-60346D01*
X47584Y-60325D01*
X47167Y-60324D01*
X46780Y-60484D01*
X46731Y-60533D01*
X46731Y-59436D01*
X45150Y-57854D01*
X44920Y-58084D01*
X44920Y-57625D01*
X43338Y-56043D01*
X43016Y-56276D01*
X42663Y-57195D01*
X42687Y-58179D01*
X43016Y-58973D01*
X43338Y-59206D01*
X44920Y-57625D01*
X44920Y-58084D01*
X43568Y-59436D01*
X43801Y-59758D01*
X44720Y-60111D01*
X45704Y-60087D01*
X46498Y-59758D01*
X46731Y-59436D01*
X46731Y-60533D01*
X46485Y-60779D01*
X46325Y-61165D01*
X46324Y-61582D01*
X46484Y-61969D01*
X46779Y-62264D01*
X47165Y-62424D01*
X47582Y-62425D01*
X47969Y-62265D01*
X48264Y-61970D01*
X48424Y-61584D01*
X48425Y-61167D01*
X48425Y-62720D01*
X41987Y-62720D01*
X41987Y-54256D01*
X41987Y-53762D01*
X41493Y-53762D01*
X41374Y-53881D01*
X41374Y-53994D01*
X41447Y-54169D01*
X41580Y-54302D01*
X41755Y-54375D01*
X41868Y-54375D01*
X41987Y-54256D01*
X41987Y-62720D01*
X41770Y-62720D01*
X41770Y-61804D01*
X41732Y-61712D01*
X41662Y-61642D01*
X41570Y-61604D01*
X41470Y-61604D01*
X40683Y-61604D01*
X40591Y-61642D01*
X40521Y-61712D01*
X40483Y-61804D01*
X40483Y-61903D01*
X40483Y-62720D01*
X38266Y-62720D01*
X38266Y-61804D01*
X38228Y-61712D01*
X38158Y-61642D01*
X38066Y-61604D01*
X37966Y-61604D01*
X37460Y-61604D01*
X37460Y-61029D01*
X37460Y-60343D01*
X37460Y-60018D01*
X37460Y-59332D01*
X37341Y-59213D01*
X37324Y-59213D01*
X37134Y-59213D01*
X36960Y-59286D01*
X36826Y-59419D01*
X36754Y-59594D01*
X36754Y-59899D01*
X36873Y-60018D01*
X37460Y-60018D01*
X37460Y-60343D01*
X36873Y-60343D01*
X36754Y-60462D01*
X36754Y-60767D01*
X36826Y-60942D01*
X36960Y-61075D01*
X37134Y-61148D01*
X37324Y-61148D01*
X37341Y-61148D01*
X37460Y-61029D01*
X37460Y-61604D01*
X37179Y-61604D01*
X37087Y-61642D01*
X37017Y-61712D01*
X36979Y-61804D01*
X36979Y-61903D01*
X36979Y-62720D01*
X32175Y-62720D01*
X32175Y-61167D01*
X32015Y-60780D01*
X31720Y-60485D01*
X31334Y-60325D01*
X30917Y-60324D01*
X30530Y-60484D01*
X30235Y-60779D01*
X30075Y-61165D01*
X30074Y-61582D01*
X30234Y-61969D01*
X30529Y-62264D01*
X30915Y-62424D01*
X31332Y-62425D01*
X31719Y-62265D01*
X32014Y-61970D01*
X32174Y-61584D01*
X32175Y-61167D01*
X32175Y-62720D01*
X29779Y-62720D01*
X29779Y-24029D01*
X48720Y-24029D01*
X48720Y-62720D01*
M02*
