G04 (created by PCBNEW (2013-mar-13)-testing) date vie 02 ago 2013 12:29:19 CEST*
%MOIN*%
G04 Gerber Fmt 3.4, Leading zero omitted, Abs format*
%FSLAX34Y34*%
G01*
G70*
G90*
G04 APERTURE LIST*
%ADD10C,0.005906*%
%ADD11R,0.055000X0.055000*%
%ADD12C,0.055000*%
%ADD13R,0.047200X0.047200*%
%ADD14C,0.400000*%
%ADD15R,0.035000X0.055000*%
%ADD16R,0.055000X0.035000*%
%ADD17C,0.160000*%
%ADD18R,0.019700X0.090600*%
%ADD19R,0.078700X0.098400*%
%ADD20C,0.035400*%
G04 APERTURE END LIST*
G54D10*
G54D11*
X37500Y-28000D03*
G54D12*
X35925Y-28000D03*
X35137Y-28000D03*
X34350Y-28000D03*
G54D11*
X37500Y-28984D03*
G54D12*
X35925Y-28984D03*
X35137Y-28984D03*
X34350Y-28984D03*
G54D13*
X45163Y-28500D03*
X44337Y-28500D03*
X45163Y-31250D03*
X44337Y-31250D03*
X45163Y-34000D03*
X44337Y-34000D03*
X45163Y-36750D03*
X44337Y-36750D03*
X45163Y-39500D03*
X44337Y-39500D03*
X45163Y-42250D03*
X44337Y-42250D03*
X45163Y-45000D03*
X44337Y-45000D03*
X45163Y-47750D03*
X44337Y-47750D03*
G54D14*
X45150Y-57625D03*
X33350Y-57625D03*
G54D11*
X46500Y-28500D03*
G54D12*
X47500Y-28500D03*
G54D11*
X46500Y-31250D03*
G54D12*
X47500Y-31250D03*
G54D11*
X46500Y-34000D03*
G54D12*
X47500Y-34000D03*
G54D11*
X46500Y-36750D03*
G54D12*
X47500Y-36750D03*
G54D11*
X46500Y-39500D03*
G54D12*
X47500Y-39500D03*
G54D11*
X46500Y-42250D03*
G54D12*
X47500Y-42250D03*
G54D11*
X46500Y-45000D03*
G54D12*
X47500Y-45000D03*
G54D11*
X46500Y-47750D03*
G54D12*
X47500Y-47750D03*
G54D11*
X32000Y-28500D03*
G54D12*
X31000Y-28500D03*
G54D11*
X32000Y-31250D03*
G54D12*
X31000Y-31250D03*
G54D11*
X32000Y-34000D03*
G54D12*
X31000Y-34000D03*
G54D11*
X32000Y-36750D03*
G54D12*
X31000Y-36750D03*
G54D11*
X32000Y-39500D03*
G54D12*
X31000Y-39500D03*
G54D11*
X32000Y-42250D03*
G54D12*
X31000Y-42250D03*
G54D11*
X32000Y-45000D03*
G54D12*
X31000Y-45000D03*
G54D11*
X32000Y-47750D03*
G54D12*
X31000Y-47750D03*
G54D15*
X44375Y-29250D03*
X45125Y-29250D03*
X44375Y-32000D03*
X45125Y-32000D03*
X44375Y-34750D03*
X45125Y-34750D03*
X44375Y-37500D03*
X45125Y-37500D03*
X44375Y-40250D03*
X45125Y-40250D03*
X44375Y-43000D03*
X45125Y-43000D03*
X44375Y-45750D03*
X45125Y-45750D03*
X44375Y-48500D03*
X45125Y-48500D03*
G54D16*
X39125Y-28875D03*
X39125Y-28125D03*
X39125Y-31625D03*
X39125Y-30875D03*
X39125Y-34375D03*
X39125Y-33625D03*
X39125Y-37125D03*
X39125Y-36375D03*
X39125Y-39875D03*
X39125Y-39125D03*
X39125Y-42625D03*
X39125Y-41875D03*
X39125Y-45500D03*
X39125Y-44750D03*
X39125Y-48125D03*
X39125Y-47375D03*
G54D11*
X37500Y-30750D03*
G54D12*
X35925Y-30750D03*
X35137Y-30750D03*
X34350Y-30750D03*
G54D11*
X37500Y-31734D03*
G54D12*
X35925Y-31734D03*
X35137Y-31734D03*
X34350Y-31734D03*
G54D11*
X37500Y-33500D03*
G54D12*
X35925Y-33500D03*
X35137Y-33500D03*
X34350Y-33500D03*
G54D11*
X37500Y-34484D03*
G54D12*
X35925Y-34484D03*
X35137Y-34484D03*
X34350Y-34484D03*
G54D11*
X37500Y-36250D03*
G54D12*
X35925Y-36250D03*
X35137Y-36250D03*
X34350Y-36250D03*
G54D11*
X37500Y-37234D03*
G54D12*
X35925Y-37234D03*
X35137Y-37234D03*
X34350Y-37234D03*
G54D11*
X37500Y-39000D03*
G54D12*
X35925Y-39000D03*
X35137Y-39000D03*
X34350Y-39000D03*
G54D11*
X37500Y-39984D03*
G54D12*
X35925Y-39984D03*
X35137Y-39984D03*
X34350Y-39984D03*
G54D11*
X37500Y-41750D03*
G54D12*
X35925Y-41750D03*
X35137Y-41750D03*
X34350Y-41750D03*
G54D11*
X37500Y-42734D03*
G54D12*
X35925Y-42734D03*
X35137Y-42734D03*
X34350Y-42734D03*
G54D11*
X37500Y-44500D03*
G54D12*
X35925Y-44500D03*
X35137Y-44500D03*
X34350Y-44500D03*
G54D11*
X37500Y-45484D03*
G54D12*
X35925Y-45484D03*
X35137Y-45484D03*
X34350Y-45484D03*
G54D11*
X37500Y-47250D03*
G54D12*
X35925Y-47250D03*
X35137Y-47250D03*
X34350Y-47250D03*
G54D11*
X37500Y-48234D03*
G54D12*
X35925Y-48234D03*
X35137Y-48234D03*
X34350Y-48234D03*
G54D17*
X31125Y-61375D03*
X47375Y-25375D03*
X31125Y-25375D03*
X47375Y-61375D03*
G54D18*
X38745Y-60142D03*
X39060Y-60142D03*
X39375Y-60142D03*
X39690Y-60142D03*
X40005Y-60142D03*
G54D19*
X37623Y-60181D03*
X37623Y-62346D03*
X41127Y-60181D03*
X41127Y-62346D03*
G54D20*
X38509Y-61165D03*
X40241Y-61165D03*
G54D11*
X31000Y-52625D03*
G54D12*
X32000Y-52625D03*
X32000Y-51625D03*
G54D11*
X32875Y-53625D03*
G54D12*
X33875Y-53625D03*
X33875Y-52625D03*
G54D11*
X35625Y-52625D03*
G54D12*
X36625Y-52625D03*
X36625Y-51625D03*
G54D11*
X37500Y-53625D03*
G54D12*
X38500Y-53625D03*
X38500Y-52625D03*
G54D11*
X40250Y-52625D03*
G54D12*
X41250Y-52625D03*
X41250Y-51625D03*
G54D11*
X42125Y-53625D03*
G54D12*
X43125Y-53625D03*
X43125Y-52625D03*
G54D11*
X44875Y-52625D03*
G54D12*
X45875Y-52625D03*
X45875Y-51625D03*
G54D11*
X46750Y-53625D03*
G54D12*
X47750Y-53625D03*
X47750Y-52625D03*
M02*
